<?xml version="1.0" encoding="UTF-8" standalone="no"?>
<!-- Created with Inkscape (http://www.inkscape.org/) -->

<svg
   width="25"
   height="50"
   viewBox="0 0 6.6145832 13.229167"
   version="1.1"
   id="svg1"
   xml:space="preserve"
   inkscape:version="1.4.2 (ebf0e940d0, 2025-05-08)"
   sodipodi:docname="dash_bottom_left_corner.svg"
   xmlns:inkscape="http://www.inkscape.org/namespaces/inkscape"
   xmlns:sodipodi="http://sodipodi.sourceforge.net/DTD/sodipodi-0.dtd"
   xmlns:xlink="http://www.w3.org/1999/xlink"
   xmlns="http://www.w3.org/2000/svg"
   xmlns:svg="http://www.w3.org/2000/svg"><sodipodi:namedview
     id="namedview1"
     pagecolor="#505050"
     bordercolor="#eeeeee"
     borderopacity="1"
     inkscape:showpageshadow="0"
     inkscape:pageopacity="0"
     inkscape:pagecheckerboard="false"
     inkscape:deskcolor="#505050"
     inkscape:document-units="px"
     showborder="true"
     inkscape:zoom="64"
     inkscape:cx="13.148437"
     inkscape:cy="12.734375"
     inkscape:window-width="2272"
     inkscape:window-height="1220"
     inkscape:window-x="0"
     inkscape:window-y="0"
     inkscape:window-maximized="0"
     inkscape:current-layer="layer1" /><defs
     id="defs1"><linearGradient
       id="linearGradient11"
       inkscape:collect="always"><stop
         style="stop-color:#000000;stop-opacity:0;"
         offset="0"
         id="stop10" /><stop
         style="stop-color:#000000;stop-opacity:0.20281428;"
         offset="1"
         id="stop11" /></linearGradient><linearGradient
       id="linearGradient19"
       inkscape:swatch="gradient"><stop
         style="stop-color:#000000;stop-opacity:1;"
         offset="0"
         id="stop19" /><stop
         style="stop-color:#000000;stop-opacity:0;"
         offset="1"
         id="stop20" /></linearGradient><inkscape:path-effect
       effect="fillet_chamfer"
       id="path-effect18"
       is_visible="true"
       lpeversion="1"
       nodesatellites_param="F,0,0,1,0,0,0,1 @ F,0,0,1,0,0,0,1 @ F,0,0,1,0,0,0,1 @ F,0,0,1,0,0,0,1"
       radius="0"
       unit="px"
       method="auto"
       mode="F"
       chamfer_steps="1"
       flexible="false"
       use_knot_distance="true"
       apply_no_radius="true"
       apply_with_radius="true"
       only_selected="false"
       hide_knots="false" /><inkscape:path-effect
       effect="bend_path"
       id="path-effect9"
       is_visible="true"
       lpeversion="1"
       bendpath="m 10.583333,-0.52916664 h 2.645833"
       prop_scale="2.44"
       scale_y_rel="false"
       vertical="false"
       hide_knot="false" /><clipPath
       clipPathUnits="userSpaceOnUse"
       id="clipPath20"><rect
         style="display:inline;fill:#800000;fill-opacity:0.25098;stroke:none;stroke-width:0.264583;stroke-opacity:0.0980392;paint-order:stroke fill markers"
         id="rect20"
         width="13.229166"
         height="13.229165"
         x="0"
         y="0"
         ry="0"
         inkscape:label="clip" /></clipPath><radialGradient
       inkscape:collect="always"
       xlink:href="#linearGradient11"
       id="radialGradient10"
       cx="5.2926741"
       cy="13.228944"
       fx="5.2926741"
       fy="13.228944"
       r="1.3229167"
       gradientUnits="userSpaceOnUse"
       gradientTransform="matrix(1.9987877,0,0,1.9943694,-3.9648899,-13.155134)" /></defs><g
     inkscape:label="Layer 1"
     inkscape:groupmode="layer"
     id="layer1"><path
       style="fill:#000000;fill-opacity:0.25;stroke-width:0.264583;paint-order:stroke fill markers"
       d="M 5.1252686,2.9104167 C 3.9054541,2.9286643 2.9295514,3.90413 2.9104167,5.1237183 v 8.1054487 h 0.79375 v -1.189592 c 0,-0.950477 0.7682865,-1.720825 1.7187581,-1.720825 H 6.6145833 V 2.9104167 Z"
       id="path9"
       inkscape:label="base" /><path
       id="rect9"
       style="baseline-shift:baseline;display:inline;overflow:visible;vector-effect:none;fill:#ffffff;fill-opacity:0.0999333;paint-order:stroke fill markers;enable-background:accumulate;stop-color:#000000;stop-opacity:1;opacity:1"
       d="M 5.4239583 10.318233 C 4.4734821 10.318233 3.7052002 11.088581 3.7052002 12.039058 L 3.7052002 13.229167 L 3.96875 13.229167 L 3.96875 12.039058 C 3.96875 11.230584 4.6154846 10.58385 5.4239583 10.58385 L 6.6145833 10.58385 L 6.6145833 10.318233 L 5.4239583 10.318233 z "
       inkscape:label="inner" /><path
       id="rect8"
       style="baseline-shift:baseline;display:inline;overflow:visible;vector-effect:none;fill:#ffffff;fill-opacity:0.0999333;paint-order:stroke fill markers;enable-background:accumulate;stop-color:#000000;stop-opacity:1;opacity:1"
       d="M 5.1604085 2.6463501 C 3.7701949 2.6463501 2.6463501 3.7701949 2.6463501 5.1604085 L 2.6463501 13.229167 L 2.9098999 13.229167 L 2.9098999 5.1604085 C 2.9098999 3.9121973 3.9121973 2.9098998 5.1604085 2.9098999 L 6.6145833 2.9098999 L 6.6145833 2.6463501 L 5.1604085 2.6463501 z "
       inkscape:label="outer" /><path
       id="rect3"
       style="display:inline;fill:#ffffff;fill-opacity:0.0980123;stroke-width:0.264583;paint-order:stroke fill markers"
       inkscape:label="dots"
       d="m 4.8947915,3.175 c -0.07329,0 -0.1322917,0.059002 -0.1322917,0.1322916 0,0.07329 0.059002,0.1322917 0.1322917,0.1322917 0.07329,0 0.1322916,-0.059002 0.1322916,-0.1322917 0,-0.07329 -0.059002,-0.1322916 -0.1322916,-0.1322916 z m 1.0583332,0 c -0.073289,0 -0.1322916,0.059002 -0.1322916,0.1322916 0,0.07329 0.059002,0.1322917 0.1322916,0.1322917 0.07329,0 0.1322917,-0.059002 0.1322917,-0.1322917 C 6.0854164,3.2340016 6.0264144,3.175 5.9531247,3.175 Z M 4.3656248,3.7041666 c -0.07329,0 -0.1322916,0.059002 -0.1322916,0.1322916 0,0.07329 0.059002,0.1322917 0.1322916,0.1322917 0.07329,0 0.1322917,-0.059002 0.1322917,-0.1322917 0,-0.07329 -0.059002,-0.1322916 -0.1322917,-0.1322916 z m 1.0583333,0 c -0.07329,0 -0.1322917,0.059002 -0.1322917,0.1322916 0,0.07329 0.059002,0.1322917 0.1322917,0.1322917 0.07329,0 0.1322917,-0.059002 0.1322917,-0.1322917 0,-0.07329 -0.059002,-0.1322916 -0.1322917,-0.1322916 z m 1.0583333,0 c -0.07329,0 -0.1322917,0.059002 -0.1322917,0.1322916 0,0.07329 0.059002,0.1322917 0.1322917,0.1322917 0.07329,0 0.1322916,-0.059002 0.1322916,-0.1322917 0,-0.07329 -0.059002,-0.1322916 -0.1322916,-0.1322916 z M 3.8364582,4.2333332 c -0.07329,0 -0.1322917,0.059002 -0.1322917,0.1322917 0,0.07329 0.059002,0.1322916 0.1322917,0.1322916 0.07329,0 0.1322916,-0.059002 0.1322916,-0.1322916 0,-0.07329 -0.059002,-0.1322917 -0.1322916,-0.1322917 z m 1.0583333,0 c -0.07329,0 -0.1322917,0.059002 -0.1322917,0.1322917 0,0.07329 0.059002,0.1322916 0.1322917,0.1322916 0.07329,0 0.1322916,-0.059002 0.1322916,-0.1322916 0,-0.07329 -0.059002,-0.1322917 -0.1322916,-0.1322917 z m 1.0583332,0 c -0.073289,0 -0.1322916,0.059002 -0.1322916,0.1322917 0,0.07329 0.059002,0.1322916 0.1322916,0.1322916 0.07329,0 0.1322917,-0.059002 0.1322917,-0.1322916 0,-0.07329 -0.059002,-0.1322917 -0.1322917,-0.1322917 z M 3.3072915,4.7624999 c -0.07329,0 -0.1322916,0.059002 -0.1322916,0.1322916 0,0.07329 0.059002,0.1322917 0.1322916,0.1322917 0.07329,0 0.1322917,-0.059002 0.1322917,-0.1322917 0,-0.07329 -0.059002,-0.1322916 -0.1322917,-0.1322916 z m 1.0583333,0 c -0.07329,0 -0.1322916,0.059002 -0.1322916,0.1322916 0,0.07329 0.059002,0.1322917 0.1322916,0.1322917 0.07329,0 0.1322917,-0.059002 0.1322917,-0.1322917 0,-0.07329 -0.059002,-0.1322916 -0.1322917,-0.1322916 z m 1.0583333,0 c -0.07329,0 -0.1322917,0.059002 -0.1322917,0.1322916 0,0.07329 0.059002,0.1322917 0.1322917,0.1322917 0.07329,0 0.1322917,-0.059002 0.1322917,-0.1322917 0,-0.07329 -0.059002,-0.1322916 -0.1322917,-0.1322916 z m 1.0583333,0 c -0.07329,0 -0.1322917,0.059002 -0.1322917,0.1322916 0,0.07329 0.059002,0.1322917 0.1322917,0.1322917 0.07329,0 0.1322916,-0.059002 0.1322916,-0.1322917 0,-0.07329 -0.059002,-0.1322916 -0.1322916,-0.1322916 z M 3.8364582,5.2916665 c -0.07329,0 -0.1322917,0.059002 -0.1322917,0.1322917 0,0.07329 0.059002,0.1322916 0.1322917,0.1322916 0.07329,0 0.1322916,-0.059002 0.1322916,-0.1322916 0,-0.07329 -0.059002,-0.1322917 -0.1322916,-0.1322917 z m 1.0583333,0 c -0.07329,0 -0.1322917,0.059002 -0.1322917,0.1322917 0,0.07329 0.059002,0.1322916 0.1322917,0.1322916 0.07329,0 0.1322916,-0.059002 0.1322916,-0.1322916 0,-0.07329 -0.059002,-0.1322917 -0.1322916,-0.1322917 z m 1.0583332,0 c -0.073289,0 -0.1322916,0.059002 -0.1322916,0.1322917 0,0.07329 0.059002,0.1322916 0.1322916,0.1322916 0.07329,0 0.1322917,-0.059002 0.1322917,-0.1322916 0,-0.07329 -0.059002,-0.1322917 -0.1322917,-0.1322917 z M 3.3072915,5.8208331 c -0.07329,0 -0.1322916,0.059002 -0.1322916,0.1322917 0,0.07329 0.059002,0.1322917 0.1322916,0.1322917 0.07329,0 0.1322917,-0.059002 0.1322917,-0.1322917 0,-0.07329 -0.059002,-0.1322917 -0.1322917,-0.1322917 z m 1.0583333,0 c -0.07329,0 -0.1322916,0.059002 -0.1322916,0.1322917 0,0.07329 0.059002,0.1322917 0.1322916,0.1322917 0.07329,0 0.1322917,-0.059002 0.1322917,-0.1322917 0,-0.07329 -0.059002,-0.1322917 -0.1322917,-0.1322917 z m 1.0583333,0 c -0.07329,0 -0.1322917,0.059002 -0.1322917,0.1322917 0,0.07329 0.059002,0.1322917 0.1322917,0.1322917 0.07329,0 0.1322917,-0.059002 0.1322917,-0.1322917 0,-0.07329 -0.059002,-0.1322917 -0.1322917,-0.1322917 z m 1.0583333,0 c -0.07329,0 -0.1322917,0.059002 -0.1322917,0.1322917 0,0.07329 0.059002,0.1322917 0.1322917,0.1322917 0.07329,0 0.1322916,-0.059002 0.1322916,-0.1322917 0,-0.07329 -0.059002,-0.1322917 -0.1322916,-0.1322917 z M 3.8364582,6.3499998 c -0.07329,0 -0.1322917,0.059002 -0.1322917,0.1322916 0,0.07329 0.059002,0.1322917 0.1322917,0.1322917 0.07329,0 0.1322916,-0.059002 0.1322916,-0.1322917 0,-0.07329 -0.059002,-0.1322916 -0.1322916,-0.1322916 z m 1.0583333,0 c -0.07329,0 -0.1322917,0.059002 -0.1322917,0.1322916 0,0.07329 0.059002,0.1322917 0.1322917,0.1322917 0.07329,0 0.1322916,-0.059002 0.1322916,-0.1322917 0,-0.07329 -0.059002,-0.1322916 -0.1322916,-0.1322916 z m 1.0583332,0 c -0.073289,0 -0.1322916,0.059002 -0.1322916,0.1322916 0,0.07329 0.059002,0.1322917 0.1322916,0.1322917 0.07329,0 0.1322917,-0.059002 0.1322917,-0.1322917 0,-0.07329 -0.059002,-0.1322916 -0.1322917,-0.1322916 z M 3.3072915,6.8791664 c -0.07329,0 -0.1322916,0.059002 -0.1322916,0.1322917 0,0.07329 0.059002,0.1322916 0.1322916,0.1322916 0.07329,0 0.1322917,-0.059002 0.1322917,-0.1322916 0,-0.07329 -0.059002,-0.1322917 -0.1322917,-0.1322917 z m 1.0583333,0 c -0.07329,0 -0.1322916,0.059002 -0.1322916,0.1322917 0,0.07329 0.059002,0.1322916 0.1322916,0.1322916 0.07329,0 0.1322917,-0.059002 0.1322917,-0.1322916 0,-0.07329 -0.059002,-0.1322917 -0.1322917,-0.1322917 z m 1.0583333,0 c -0.07329,0 -0.1322917,0.059002 -0.1322917,0.1322917 0,0.07329 0.059002,0.1322916 0.1322917,0.1322916 0.07329,0 0.1322917,-0.059002 0.1322917,-0.1322916 0,-0.07329 -0.059002,-0.1322917 -0.1322917,-0.1322917 z m 1.0583333,0 c -0.07329,0 -0.1322917,0.059002 -0.1322917,0.1322917 0,0.07329 0.059002,0.1322916 0.1322917,0.1322916 0.07329,0 0.1322916,-0.059002 0.1322916,-0.1322916 0,-0.07329 -0.059002,-0.1322917 -0.1322916,-0.1322917 z M 3.8364582,7.4083331 c -0.07329,0 -0.1322917,0.059002 -0.1322917,0.1322916 0,0.07329 0.059002,0.1322917 0.1322917,0.1322917 0.07329,0 0.1322916,-0.059002 0.1322916,-0.1322917 0,-0.07329 -0.059002,-0.1322916 -0.1322916,-0.1322916 z m 1.0583333,0 c -0.07329,0 -0.1322917,0.059002 -0.1322917,0.1322916 0,0.07329 0.059002,0.1322917 0.1322917,0.1322917 0.07329,0 0.1322916,-0.059002 0.1322916,-0.1322917 0,-0.07329 -0.059002,-0.1322916 -0.1322916,-0.1322916 z m 1.0583332,0 c -0.073289,0 -0.1322916,0.059002 -0.1322916,0.1322916 0,0.07329 0.059002,0.1322917 0.1322916,0.1322917 0.07329,0 0.1322917,-0.059002 0.1322917,-0.1322917 0,-0.07329 -0.059002,-0.1322916 -0.1322917,-0.1322916 z M 3.3072915,7.9374997 c -0.07329,0 -0.1322916,0.059002 -0.1322916,0.1322917 0,0.073289 0.059002,0.1322916 0.1322916,0.1322916 0.07329,0 0.1322917,-0.059002 0.1322917,-0.1322916 0,-0.07329 -0.059002,-0.1322917 -0.1322917,-0.1322917 z m 1.0583333,0 c -0.07329,0 -0.1322916,0.059002 -0.1322916,0.1322917 0,0.073289 0.059002,0.1322916 0.1322916,0.1322916 0.07329,0 0.1322917,-0.059002 0.1322917,-0.1322916 0,-0.07329 -0.059002,-0.1322917 -0.1322917,-0.1322917 z m 1.0583333,0 c -0.07329,0 -0.1322917,0.059002 -0.1322917,0.1322917 0,0.073289 0.059002,0.1322916 0.1322917,0.1322916 0.07329,0 0.1322917,-0.059002 0.1322917,-0.1322916 0,-0.07329 -0.059002,-0.1322917 -0.1322917,-0.1322917 z m 1.0583333,0 c -0.07329,0 -0.1322917,0.059002 -0.1322917,0.1322917 0,0.073289 0.059002,0.1322916 0.1322917,0.1322916 0.07329,0 0.1322916,-0.059002 0.1322916,-0.1322916 0,-0.07329 -0.059002,-0.1322917 -0.1322916,-0.1322917 z M 3.8364582,8.4666663 c -0.07329,0 -0.1322917,0.059002 -0.1322917,0.1322917 0,0.07329 0.059002,0.1322917 0.1322917,0.1322917 0.07329,0 0.1322916,-0.059002 0.1322916,-0.1322917 0,-0.07329 -0.059002,-0.1322917 -0.1322916,-0.1322917 z m 1.0583333,0 c -0.07329,0 -0.1322917,0.059002 -0.1322917,0.1322917 0,0.07329 0.059002,0.1322917 0.1322917,0.1322917 0.07329,0 0.1322916,-0.059002 0.1322916,-0.1322917 0,-0.07329 -0.059002,-0.1322917 -0.1322916,-0.1322917 z m 1.0583332,0 c -0.073289,0 -0.1322916,0.059002 -0.1322916,0.1322917 0,0.07329 0.059002,0.1322917 0.1322916,0.1322917 0.07329,0 0.1322917,-0.059002 0.1322917,-0.1322917 0,-0.07329 -0.059002,-0.1322917 -0.1322917,-0.1322917 z M 3.3072915,8.995833 c -0.07329,0 -0.1322916,0.059002 -0.1322916,0.1322916 0,0.07329 0.059002,0.1322917 0.1322916,0.1322917 0.07329,0 0.1322917,-0.059002 0.1322917,-0.1322917 0,-0.073289 -0.059002,-0.1322916 -0.1322917,-0.1322916 z m 1.0583333,0 c -0.07329,0 -0.1322916,0.059002 -0.1322916,0.1322916 0,0.07329 0.059002,0.1322917 0.1322916,0.1322917 0.07329,0 0.1322917,-0.059002 0.1322917,-0.1322917 0,-0.073289 -0.059002,-0.1322916 -0.1322917,-0.1322916 z m 1.0583333,0 c -0.07329,0 -0.1322917,0.059002 -0.1322917,0.1322916 0,0.07329 0.059002,0.1322917 0.1322917,0.1322917 0.07329,0 0.1322917,-0.059002 0.1322917,-0.1322917 0,-0.073289 -0.059002,-0.1322916 -0.1322917,-0.1322916 z m 1.0583333,0 c -0.07329,0 -0.1322917,0.059002 -0.1322917,0.1322916 0,0.07329 0.059002,0.1322917 0.1322917,0.1322917 0.07329,0 0.1322916,-0.059002 0.1322916,-0.1322917 0,-0.073289 -0.059002,-0.1322916 -0.1322916,-0.1322916 z M 3.8364582,9.5249996 c -0.07329,0 -0.1322917,0.059002 -0.1322917,0.1322917 0,0.07329 0.059002,0.1322916 0.1322917,0.1322916 0.07329,0 0.1322916,-0.059002 0.1322916,-0.1322916 0,-0.07329 -0.059002,-0.1322917 -0.1322916,-0.1322917 z m 1.0583333,0 c -0.07329,0 -0.1322917,0.059002 -0.1322917,0.1322917 0,0.07329 0.059002,0.1322916 0.1322917,0.1322916 0.07329,0 0.1322916,-0.059002 0.1322916,-0.1322916 0,-0.07329 -0.059002,-0.1322917 -0.1322916,-0.1322917 z m 1.0583332,0 c -0.073289,0 -0.1322916,0.059002 -0.1322916,0.1322917 0,0.07329 0.059002,0.1322916 0.1322916,0.1322916 0.07329,0 0.1322917,-0.059002 0.1322917,-0.1322916 0,-0.07329 -0.059002,-0.1322917 -0.1322917,-0.1322917 z M 3.3072915,10.054166 c -0.07329,0 -0.1322916,0.059 -0.1322916,0.132291 0,0.07329 0.059002,0.132292 0.1322916,0.132292 0.07329,0 0.1322917,-0.059 0.1322917,-0.132292 0,-0.07329 -0.059002,-0.132291 -0.1322917,-0.132291 z m 1.0583333,0 c -0.07329,0 -0.1322916,0.059 -0.1322916,0.132291 0,0.07329 0.059002,0.132292 0.1322916,0.132292 0.07329,0 0.1322917,-0.059 0.1322917,-0.132292 0,-0.07329 -0.059002,-0.132291 -0.1322917,-0.132291 z m 1.0583333,0 c -0.07329,0 -0.1322917,0.059 -0.1322917,0.132291 0,0.07329 0.059002,0.132292 0.1322917,0.132292 0.07329,0 0.1322917,-0.059 0.1322917,-0.132292 0,-0.07329 -0.059002,-0.132291 -0.1322917,-0.132291 z m 1.0583333,0 c -0.07329,0 -0.1322917,0.059 -0.1322917,0.132291 0,0.07329 0.059002,0.132292 0.1322917,0.132292 0.07329,0 0.1322916,-0.059 0.1322916,-0.132292 0,-0.07329 -0.059002,-0.132291 -0.1322916,-0.132291 z m -2.6458332,0.529166 c -0.07329,0 -0.1322917,0.059 -0.1322917,0.132292 0,0.07329 0.059002,0.132292 0.1322917,0.132292 0.07329,0 0.1322916,-0.059 0.1322916,-0.132292 0,-0.07329 -0.059002,-0.132292 -0.1322916,-0.132292 z m -0.5291667,0.529167 c -0.07329,0 -0.1322916,0.059 -0.1322916,0.132292 0,0.07329 0.059002,0.132291 0.1322916,0.132291 0.07329,0 0.1322917,-0.059 0.1322917,-0.132291 0,-0.07329 -0.059002,-0.132292 -0.1322917,-0.132292 z m 0,1.058333 c -0.07329,0 -0.1322916,0.059 -0.1322916,0.132292 0,0.07329 0.059002,0.132292 0.1322916,0.132292 0.07329,0 0.1322917,-0.059 0.1322917,-0.132292 0,-0.07329 -0.059002,-0.132292 -0.1322917,-0.132292 z"
       sodipodi:nodetypes="ssssssssssssssssssssssssssssssssssssssssssssssssssssssssssssssssssssssssssssssssssssssssssssssssssssssssssssssssssssssssssssssssssssssssssssssssssssssssssssssssssssssssssssssssssssssssssssssssssssssssssssssssssssssssssssssssssssssssssssssssssssssssss" /><path
       style="fill:url(#radialGradient10);stroke-width:0.264583;paint-order:stroke fill markers"
       d="m 6.6135498,10.583333 v 0.001 h -1.190625 c -0.7897355,0 -1.4251554,0.617231 -1.4541748,1.399398 v 1.245402 h 2.6458333 v -2.645834 z"
       id="path10" /></g></svg>
