<?xml version="1.0" encoding="UTF-8" standalone="no"?>
<!-- Created with Inkscape (http://www.inkscape.org/) -->

<svg
   width="50"
   height="50"
   viewBox="0 0 13.229166 13.229166"
   version="1.1"
   id="svg1"
   xml:space="preserve"
   sodipodi:docname="dash_bottom_right_corner.svg"
   inkscape:version="1.4.2 (ebf0e940d0, 2025-05-08)"
   inkscape:export-filename="dash_bottom_right_corner.png"
   inkscape:export-xdpi="384"
   inkscape:export-ydpi="384"
   xmlns:inkscape="http://www.inkscape.org/namespaces/inkscape"
   xmlns:sodipodi="http://sodipodi.sourceforge.net/DTD/sodipodi-0.dtd"
   xmlns:xlink="http://www.w3.org/1999/xlink"
   xmlns="http://www.w3.org/2000/svg"
   xmlns:svg="http://www.w3.org/2000/svg"><sodipodi:namedview
     id="namedview1"
     pagecolor="#505050"
     bordercolor="#eeeeee"
     borderopacity="1"
     inkscape:showpageshadow="false"
     inkscape:pageopacity="0"
     inkscape:pagecheckerboard="true"
     inkscape:deskcolor="#505050"
     inkscape:document-units="px"
     inkscape:antialias-rendering="true"
     inkscape:zoom="16"
     inkscape:cx="36.8125"
     inkscape:cy="14.0625"
     inkscape:window-width="3440"
     inkscape:window-height="1412"
     inkscape:window-x="0"
     inkscape:window-y="0"
     inkscape:window-maximized="1"
     inkscape:current-layer="svg1"
     showborder="true" /><defs
     id="defs1"><linearGradient
       id="linearGradient3"
       inkscape:collect="always"><stop
         style="stop-color:#000000;stop-opacity:0.51999998;"
         offset="0"
         id="stop2" /><stop
         style="stop-color:#000000;stop-opacity:0;"
         offset="1"
         id="stop3" /></linearGradient><linearGradient
       id="linearGradient19"
       inkscape:swatch="gradient"><stop
         style="stop-color:#000000;stop-opacity:1;"
         offset="0"
         id="stop19" /><stop
         style="stop-color:#000000;stop-opacity:0;"
         offset="1"
         id="stop20" /></linearGradient><inkscape:path-effect
       effect="fillet_chamfer"
       id="path-effect18"
       is_visible="true"
       lpeversion="1"
       nodesatellites_param="F,0,0,1,0,0,0,1 @ F,0,0,1,0,0,0,1 @ F,0,0,1,0,0,0,1 @ F,0,0,1,0,0,0,1"
       radius="0"
       unit="px"
       method="auto"
       mode="F"
       chamfer_steps="1"
       flexible="false"
       use_knot_distance="true"
       apply_no_radius="true"
       apply_with_radius="true"
       only_selected="false"
       hide_knots="false" /><inkscape:path-effect
       effect="bend_path"
       id="path-effect9"
       is_visible="true"
       lpeversion="1"
       bendpath="m 10.583333,-0.52916664 h 2.645833"
       prop_scale="2.44"
       scale_y_rel="false"
       vertical="false"
       hide_knot="false" /><clipPath
       clipPathUnits="userSpaceOnUse"
       id="clipPath20"><rect
         style="display:inline;fill:#800000;fill-opacity:0.25098;stroke:none;stroke-width:0.264583;stroke-opacity:0.0980392;paint-order:stroke fill markers"
         id="rect20"
         width="13.229166"
         height="13.229165"
         x="0"
         y="0"
         ry="0"
         inkscape:label="clip" /></clipPath><linearGradient
       id="linearGradient5"
       inkscape:collect="always"><stop
         style="stop-color:#000000;stop-opacity:0.2;"
         offset="0"
         id="stop5" /><stop
         style="stop-color:#000000;stop-opacity:0;"
         offset="1"
         id="stop6" /></linearGradient><linearGradient
       inkscape:collect="always"
       xlink:href="#linearGradient5"
       id="linearGradient6"
       x1="3.96875"
       y1="0.52916664"
       x2="6.6145835"
       y2="0.52916664"
       gradientUnits="userSpaceOnUse"
       gradientTransform="matrix(1,0,0,6.0000001,6.6145839,0)" /><linearGradient
       inkscape:collect="always"
       xlink:href="#linearGradient5"
       id="linearGradient1"
       gradientUnits="userSpaceOnUse"
       gradientTransform="matrix(1,0,0,6.0000001,6.6145839,-6.3499998)"
       x1="3.96875"
       y1="0.52916664"
       x2="6.6145835"
       y2="0.52916664" /><radialGradient
       inkscape:collect="always"
       xlink:href="#linearGradient3"
       id="radialGradient2"
       cx="6.3499999"
       cy="-6.3830729"
       fx="6.3499999"
       fy="-6.3830729"
       r="3.4395831"
       gradientUnits="userSpaceOnUse"
       gradientTransform="matrix(1.9927886,0,0,1.9903845,-6.3042072,6.321696)" /></defs><path
     style="display:inline;fill:#000000;fill-opacity:0.25098;stroke:none;stroke-width:0.264583;stroke-opacity:0.0980392;paint-order:stroke fill markers"
     d="m 2.9104165,0 v 1.8520832 c 0,0.5863166 -0.4720167,1.0583333 -1.0583333,1.0583333 H 0 v 7.4083325 h 6.614583 c 2.0521082,0 3.704166,-1.6520578 3.704166,-3.704166 V 0 Z"
     id="path1"
     sodipodi:nodetypes="cssccsscc"
     inkscape:label="outer" /><path
     id="rect6"
     style="baseline-shift:baseline;display:inline;overflow:visible;opacity:1;vector-effect:none;fill:#ffffff;fill-opacity:0.0980392;paint-order:stroke fill markers;enable-background:accumulate;stop-color:#000000;stop-opacity:1"
     d="m 10.318233,0 v 6.6150998 c 0,2.0543966 -1.6487366,3.7031332 -3.7031332,3.7031332 H 0 v 0.265617 h 6.6150998 c 2.196399,0 3.9687502,-1.7723512 3.9687502,-3.9687502 V 0 Z"
     inkscape:label="base" /><path
     style="baseline-shift:baseline;display:inline;overflow:visible;opacity:1;fill:#ffffff;fill-opacity:0.0980392;stroke:none;stroke-width:1.00012;stroke-dasharray:none;stroke-opacity:0.0980392;paint-order:stroke fill markers;enable-background:accumulate;stop-color:#000000;stop-opacity:1"
     d="M 2.64635,0 2.6458332,1.8531168 C 2.6457099,2.2951427 2.2951427,2.6458332 1.8531168,2.6458332 L 0,2.64635 V 2.9098998 L 1.8531168,2.909383 C 2.4371451,2.9092201 2.909383,2.4371451 2.909383,1.8531168 L 2.9098998,0 Z"
     id="path2"
     sodipodi:nodetypes="cssccsscc"
     inkscape:label="inner" /><path
     id="rect3"
     style="display:inline;fill:#ffffff;fill-opacity:0.0980123;stroke-width:0.264583;paint-order:stroke fill markers"
     inkscape:label="dots"
     d="m 0,-3.8364581 c 0,0.07329 0.05900208,0.1322916 0.13229166,0.1322916 0.0732896,0 0.13229166,-0.059002 0.13229166,-0.1322916 0,-0.07329 -0.0590021,-0.1322917 -0.13229166,-0.1322917 C 0.05900208,-3.9687498 0,-3.9097477 0,-3.8364581 Z m 0,-1.0583333 c 0,0.07329 0.05900208,0.1322916 0.13229166,0.1322916 0.0732896,0 0.13229166,-0.059002 0.13229166,-0.1322916 0,-0.07329 -0.0590021,-0.1322917 -0.13229166,-0.1322917 C 0.05900208,-5.0270831 0,-4.968081 0,-4.8947914 Z m 0,-1.0583333 c 0,0.07329 0.05900208,0.1322917 0.13229166,0.1322917 0.0732896,0 0.13229166,-0.059002 0.13229166,-0.1322917 0,-0.07329 -0.0590021,-0.1322917 -0.13229166,-0.1322917 C 0.05900208,-6.0854164 0,-6.0264143 0,-5.9531247 Z M 0,-7.011458 c 0,0.07329 0.05900208,0.1322917 0.13229166,0.1322917 0.0732896,0 0.13229166,-0.059002 0.13229166,-0.1322917 0,-0.07329 -0.0590021,-0.1322916 -0.13229166,-0.1322916 C 0.05900208,-7.1437496 0,-7.0847476 0,-7.011458 Z m 0,-1.0583333 c 0,0.07329 0.05900208,0.1322917 0.13229166,0.1322917 0.0732896,0 0.13229166,-0.059002 0.13229166,-0.1322917 0,-0.07329 -0.0590021,-0.1322916 -0.13229166,-0.1322916 C 0.05900208,-8.2020829 0,-8.1430809 0,-8.0697913 Z m 0,-1.0583332 c 0,0.073289 0.05900208,0.1322916 0.13229166,0.1322916 0.0732896,0 0.13229166,-0.059002 0.13229166,-0.1322916 0,-0.07329 -0.0590021,-0.1322917 -0.13229166,-0.1322917 C 0.05900208,-9.2604162 0,-9.2014141 0,-9.1281245 Z m 0,-1.0583335 c 0,0.07329 0.05900208,0.132292 0.13229166,0.132292 0.0732896,0 0.13229166,-0.059 0.13229166,-0.132292 0,-0.07329 -0.0590021,-0.132291 -0.13229166,-0.132291 C 0.05900208,-10.318749 0,-10.259747 0,-10.186458 Z m 0.52916664,6.8791665 c 0,0.07329 0.0590021,0.1322917 0.13229166,0.1322917 0.0732896,0 0.13229166,-0.059002 0.13229166,-0.1322917 0,-0.07329 -0.0590021,-0.1322917 -0.13229166,-0.1322917 -0.0732896,0 -0.13229166,0.059002 -0.13229166,0.1322917 z m 0,-1.0583333 c 0,0.07329 0.0590021,0.1322917 0.13229166,0.1322917 0.0732896,0 0.13229166,-0.059002 0.13229166,-0.1322917 0,-0.07329 -0.0590021,-0.1322916 -0.13229166,-0.1322916 -0.0732896,0 -0.13229166,0.059002 -0.13229166,0.1322916 z m 0,-1.0583333 c 0,0.07329 0.0590021,0.1322917 0.13229166,0.1322917 0.0732896,0 0.13229166,-0.059002 0.13229166,-0.1322917 0,-0.07329 -0.0590021,-0.1322916 -0.13229166,-0.1322916 -0.0732896,0 -0.13229166,0.059002 -0.13229166,0.1322916 z m 0,-1.0583332 c 0,0.073289 0.0590021,0.1322916 0.13229166,0.1322916 0.0732896,0 0.13229166,-0.059002 0.13229166,-0.1322916 0,-0.07329 -0.0590021,-0.1322917 -0.13229166,-0.1322917 -0.0732896,0 -0.13229166,0.059002 -0.13229166,0.1322917 z m 0,-1.0583333 c 0,0.07329 0.0590021,0.1322916 0.13229166,0.1322916 0.0732896,0 0.13229166,-0.059002 0.13229166,-0.1322916 0,-0.07329 -0.0590021,-0.1322917 -0.13229166,-0.1322917 -0.0732896,0 -0.13229166,0.059002 -0.13229166,0.1322917 z m 0,-1.0583333 c 0,0.07329 0.0590021,0.1322917 0.13229166,0.1322917 0.0732896,0 0.13229166,-0.059002 0.13229166,-0.1322917 0,-0.07329 -0.0590021,-0.1322917 -0.13229166,-0.1322917 -0.0732896,0 -0.13229166,0.059002 -0.13229166,0.1322917 z m 0,-1.0583333 c 0,0.07329 0.0590021,0.1322917 0.13229166,0.1322917 0.0732896,0 0.13229166,-0.059002 0.13229166,-0.1322917 0,-0.07329 -0.0590021,-0.1322916 -0.13229166,-0.1322916 -0.0732896,0 -0.13229166,0.059002 -0.13229166,0.1322916 z m 0.52916666,5.8208331 c 0,0.07329 0.059002,0.1322916 0.1322916,0.1322916 0.07329,0 0.1322917,-0.059002 0.1322917,-0.1322916 0,-0.07329 -0.059002,-0.1322917 -0.1322917,-0.1322917 -0.07329,0 -0.1322916,0.059002 -0.1322916,0.1322917 z m 0,-1.0583333 c 0,0.07329 0.059002,0.1322916 0.1322916,0.1322916 0.07329,0 0.1322917,-0.059002 0.1322917,-0.1322916 0,-0.07329 -0.059002,-0.1322917 -0.1322917,-0.1322917 -0.07329,0 -0.1322916,0.059002 -0.1322916,0.1322917 z m 0,-1.0583333 c 0,0.07329 0.059002,0.1322917 0.1322916,0.1322917 0.07329,0 0.1322917,-0.059002 0.1322917,-0.1322917 0,-0.07329 -0.059002,-0.1322917 -0.1322917,-0.1322917 -0.07329,0 -0.1322916,0.059002 -0.1322916,0.1322917 z m 0,-1.0583333 c 0,0.07329 0.059002,0.1322917 0.1322916,0.1322917 0.07329,0 0.1322917,-0.059002 0.1322917,-0.1322917 0,-0.07329 -0.059002,-0.1322916 -0.1322917,-0.1322916 -0.07329,0 -0.1322916,0.059002 -0.1322916,0.1322916 z m 0,-1.0583333 c 0,0.07329 0.059002,0.1322917 0.1322916,0.1322917 0.07329,0 0.1322917,-0.059002 0.1322917,-0.1322917 0,-0.07329 -0.059002,-0.1322916 -0.1322917,-0.1322916 -0.07329,0 -0.1322916,0.059002 -0.1322916,0.1322916 z m 0,-1.0583332 c 0,0.073289 0.059002,0.1322916 0.1322916,0.1322916 0.07329,0 0.1322917,-0.059002 0.1322917,-0.1322916 0,-0.07329 -0.059002,-0.1322917 -0.1322917,-0.1322917 -0.07329,0 -0.1322916,0.059002 -0.1322916,0.1322917 z m 0,-1.0583335 c 0,0.07329 0.059002,0.132292 0.1322916,0.132292 0.07329,0 0.1322917,-0.059 0.1322917,-0.132292 0,-0.07329 -0.059002,-0.132291 -0.1322917,-0.132291 -0.07329,0 -0.1322916,0.059 -0.1322916,0.132291 z m 0.5291666,6.8791665 c 0,0.07329 0.059002,0.1322917 0.1322917,0.1322917 0.07329,0 0.1322916,-0.059002 0.1322916,-0.1322917 0,-0.07329 -0.059002,-0.1322917 -0.1322916,-0.1322917 -0.07329,0 -0.1322917,0.059002 -0.1322917,0.1322917 z m 0,-1.0583333 c 0,0.07329 0.059002,0.1322917 0.1322917,0.1322917 0.07329,0 0.1322916,-0.059002 0.1322916,-0.1322917 0,-0.07329 -0.059002,-0.1322916 -0.1322916,-0.1322916 -0.07329,0 -0.1322917,0.059002 -0.1322917,0.1322916 z m 0,-1.0583333 c 0,0.07329 0.059002,0.1322917 0.1322917,0.1322917 0.07329,0 0.1322916,-0.059002 0.1322916,-0.1322917 0,-0.07329 -0.059002,-0.1322916 -0.1322916,-0.1322916 -0.07329,0 -0.1322917,0.059002 -0.1322917,0.1322916 z m 0,-1.0583332 c 0,0.073289 0.059002,0.1322916 0.1322917,0.1322916 0.07329,0 0.1322916,-0.059002 0.1322916,-0.1322916 0,-0.07329 -0.059002,-0.1322917 -0.1322916,-0.1322917 -0.07329,0 -0.1322917,0.059002 -0.1322917,0.1322917 z m 0,-1.0583333 c 0,0.07329 0.059002,0.1322916 0.1322917,0.1322916 0.07329,0 0.1322916,-0.059002 0.1322916,-0.1322916 0,-0.07329 -0.059002,-0.1322917 -0.1322916,-0.1322917 -0.07329,0 -0.1322917,0.059002 -0.1322917,0.1322917 z m 0,-1.0583333 c 0,0.07329 0.059002,0.1322917 0.1322917,0.1322917 0.07329,0 0.1322916,-0.059002 0.1322916,-0.1322917 0,-0.07329 -0.059002,-0.1322917 -0.1322916,-0.1322917 -0.07329,0 -0.1322917,0.059002 -0.1322917,0.1322917 z m 0,-1.0583333 c 0,0.07329 0.059002,0.1322917 0.1322917,0.1322917 0.07329,0 0.1322916,-0.059002 0.1322916,-0.1322917 0,-0.07329 -0.059002,-0.1322916 -0.1322916,-0.1322916 -0.07329,0 -0.1322917,0.059002 -0.1322917,0.1322916 z m 0.5291667,5.8208331 c 0,0.07329 0.059002,0.1322916 0.1322916,0.1322916 0.07329,0 0.1322917,-0.059002 0.1322917,-0.1322916 0,-0.07329 -0.059002,-0.1322917 -0.1322917,-0.1322917 -0.07329,0 -0.1322916,0.059002 -0.1322916,0.1322917 z m 0,-1.0583333 c 0,0.07329 0.059002,0.1322916 0.1322916,0.1322916 0.07329,0 0.1322917,-0.059002 0.1322917,-0.1322916 0,-0.07329 -0.059002,-0.1322917 -0.1322917,-0.1322917 -0.07329,0 -0.1322916,0.059002 -0.1322916,0.1322917 z m 0,-1.0583333 c 0,0.07329 0.059002,0.1322917 0.1322916,0.1322917 0.07329,0 0.1322917,-0.059002 0.1322917,-0.1322917 0,-0.07329 -0.059002,-0.1322917 -0.1322917,-0.1322917 -0.07329,0 -0.1322916,0.059002 -0.1322916,0.1322917 z m 0,-1.0583333 c 0,0.07329 0.059002,0.1322917 0.1322916,0.1322917 0.07329,0 0.1322917,-0.059002 0.1322917,-0.1322917 0,-0.07329 -0.059002,-0.1322916 -0.1322917,-0.1322916 -0.07329,0 -0.1322916,0.059002 -0.1322916,0.1322916 z m 0,-1.0583333 c 0,0.07329 0.059002,0.1322917 0.1322916,0.1322917 0.07329,0 0.1322917,-0.059002 0.1322917,-0.1322917 0,-0.073289 -0.059002,-0.1322916 -0.1322917,-0.1322916 -0.07329,0 -0.1322916,0.059002 -0.1322916,0.1322916 z m 0,-1.0583332 c 0,0.07329 0.059002,0.1322916 0.1322916,0.1322916 0.07329,0 0.1322917,-0.059002 0.1322917,-0.1322916 0,-0.07329 -0.059002,-0.1322917 -0.1322917,-0.1322917 -0.07329,0 -0.1322916,0.059002 -0.1322916,0.1322917 z m 0,-1.0583335 c 0,0.07329 0.059002,0.132292 0.1322916,0.132292 0.07329,0 0.1322917,-0.059 0.1322917,-0.132292 0,-0.07329 -0.059002,-0.132291 -0.1322917,-0.132291 -0.07329,0 -0.1322916,0.059 -0.1322916,0.132291 z m 0.5291666,6.8791665 c 0,0.07329 0.059002,0.1322917 0.1322917,0.1322917 0.07329,0 0.1322916,-0.059002 0.1322916,-0.1322917 0,-0.07329 -0.059002,-0.1322917 -0.1322916,-0.1322917 -0.07329,0 -0.1322917,0.059002 -0.1322917,0.1322917 z m 0,-1.0583333 c 0,0.07329 0.059002,0.1322917 0.1322917,0.1322917 0.07329,0 0.1322916,-0.059002 0.1322916,-0.1322917 0,-0.07329 -0.059002,-0.1322916 -0.1322916,-0.1322916 -0.07329,0 -0.1322917,0.059002 -0.1322917,0.1322916 z m 0,-1.0583333 c 0,0.07329 0.059002,0.1322917 0.1322917,0.1322917 0.07329,0 0.1322916,-0.059002 0.1322916,-0.1322917 0,-0.07329 -0.059002,-0.1322916 -0.1322916,-0.1322916 -0.07329,0 -0.1322917,0.059002 -0.1322917,0.1322916 z m 0,-1.0583332 c 0,0.073289 0.059002,0.1322916 0.1322917,0.1322916 0.07329,0 0.1322916,-0.059002 0.1322916,-0.1322916 0,-0.07329 -0.059002,-0.1322917 -0.1322916,-0.1322917 -0.07329,0 -0.1322917,0.059002 -0.1322917,0.1322917 z m 0,-1.0583333 c 0,0.07329 0.059002,0.1322916 0.1322917,0.1322916 0.07329,0 0.1322916,-0.059002 0.1322916,-0.1322916 0,-0.07329 -0.059002,-0.1322917 -0.1322916,-0.1322917 -0.07329,0 -0.1322917,0.059002 -0.1322917,0.1322917 z m 0,-1.0583333 c 0,0.07329 0.059002,0.1322917 0.1322917,0.1322917 0.07329,0 0.1322916,-0.059002 0.1322916,-0.1322917 0,-0.07329 -0.059002,-0.1322917 -0.1322916,-0.1322917 -0.07329,0 -0.1322917,0.059002 -0.1322917,0.1322917 z m 0,-1.0583333 c 0,0.07329 0.059002,0.1322917 0.1322917,0.1322917 0.07329,0 0.1322916,-0.059002 0.1322916,-0.1322917 0,-0.07329 -0.059002,-0.1322916 -0.1322916,-0.1322916 -0.07329,0 -0.1322917,0.059002 -0.1322917,0.1322916 z m 0.5291666,8.9958329 c 0,0.0732896 0.059002,0.13229166 0.1322917,0.13229166 0.07329,0 0.1322917,-0.0590021 0.1322917,-0.13229166 0,-0.0732896 -0.059002,-0.13229166 -0.1322917,-0.13229166 -0.07329,0 -0.1322917,0.0590021 -0.1322917,0.13229166 z m 0,-1.0583333 c 0,0.07329 0.059002,0.1322917 0.1322917,0.1322917 0.07329,0 0.1322917,-0.059002 0.1322917,-0.1322917 0,-0.07329 -0.059002,-0.1322916 -0.1322917,-0.1322916 -0.07329,0 -0.1322917,0.059002 -0.1322917,0.1322916 z m 0,-1.0583333 c 0,0.07329 0.059002,0.1322917 0.1322917,0.1322917 0.07329,0 0.1322917,-0.059002 0.1322917,-0.1322917 0,-0.07329 -0.059002,-0.1322916 -0.1322917,-0.1322916 -0.07329,0 -0.1322917,0.059002 -0.1322917,0.1322916 z m 0,-1.0583332 c 0,0.07329 0.059002,0.1322916 0.1322917,0.1322916 0.07329,0 0.1322917,-0.059002 0.1322917,-0.1322916 0,-0.07329 -0.059002,-0.1322917 -0.1322917,-0.1322917 -0.07329,0 -0.1322917,0.059002 -0.1322917,0.1322917 z m 0,-1.0583333 c 0,0.07329 0.059002,0.1322916 0.1322917,0.1322916 0.07329,0 0.1322917,-0.059002 0.1322917,-0.1322916 0,-0.07329 -0.059002,-0.1322917 -0.1322917,-0.1322917 -0.07329,0 -0.1322917,0.059002 -0.1322917,0.1322917 z m 0,-1.0583333 c 0,0.07329 0.059002,0.1322917 0.1322917,0.1322917 0.07329,0 0.1322917,-0.059002 0.1322917,-0.1322917 0,-0.07329 -0.059002,-0.1322917 -0.1322917,-0.1322917 -0.07329,0 -0.1322917,0.059002 -0.1322917,0.1322917 z m 0,-1.0583333 c 0,0.07329 0.059002,0.1322917 0.1322917,0.1322917 0.07329,0 0.1322917,-0.059002 0.1322917,-0.1322917 0,-0.07329 -0.059002,-0.1322916 -0.1322917,-0.1322916 -0.07329,0 -0.1322917,0.059002 -0.1322917,0.1322916 z m 0,-1.0583333 c 0,0.07329 0.059002,0.1322917 0.1322917,0.1322917 0.07329,0 0.1322917,-0.059002 0.1322917,-0.1322917 0,-0.07329 -0.059002,-0.1322916 -0.1322917,-0.1322916 -0.07329,0 -0.1322917,0.059002 -0.1322917,0.1322916 z m 0,-1.0583332 c 0,0.073289 0.059002,0.1322916 0.1322917,0.1322916 0.07329,0 0.1322917,-0.059002 0.1322917,-0.1322916 0,-0.07329 -0.059002,-0.1322917 -0.1322917,-0.1322917 -0.07329,0 -0.1322917,0.059002 -0.1322917,0.1322917 z m 0,-1.0583335 c 0,0.07329 0.059002,0.132292 0.1322917,0.132292 0.07329,0 0.1322917,-0.059 0.1322917,-0.132292 0,-0.07329 -0.059002,-0.132291 -0.1322917,-0.132291 -0.07329,0 -0.1322917,0.059 -0.1322917,0.132291 z M 3.7041665,-0.13229166 C 3.7041665,-0.05900208 3.7631686,0 3.8364581,0 c 0.07329,0 0.1322917,-0.05900208 0.1322917,-0.13229166 0,-0.0732896 -0.059002,-0.13229166 -0.1322917,-0.13229166 -0.07329,0 -0.1322916,0.0590021 -0.1322916,0.13229166 z m 0,-1.05833324 c 0,0.07329 0.059002,0.1322916 0.1322916,0.1322916 0.07329,0 0.1322917,-0.059002 0.1322917,-0.1322916 0,-0.07329 -0.059002,-0.1322917 -0.1322917,-0.1322917 -0.07329,0 -0.1322916,0.059002 -0.1322916,0.1322917 z m 0,-1.0583333 c 0,0.07329 0.059002,0.1322916 0.1322916,0.1322916 0.07329,0 0.1322917,-0.059002 0.1322917,-0.1322916 0,-0.07329 -0.059002,-0.1322917 -0.1322917,-0.1322917 -0.07329,0 -0.1322916,0.059002 -0.1322916,0.1322917 z m 0,-1.0583333 c 0,0.07329 0.059002,0.1322917 0.1322916,0.1322917 0.07329,0 0.1322917,-0.059002 0.1322917,-0.1322917 0,-0.07329 -0.059002,-0.1322917 -0.1322917,-0.1322917 -0.07329,0 -0.1322916,0.059002 -0.1322916,0.1322917 z m 0,-1.0583333 c 0,0.07329 0.059002,0.1322917 0.1322916,0.1322917 0.07329,0 0.1322917,-0.059002 0.1322917,-0.1322917 0,-0.07329 -0.059002,-0.1322916 -0.1322917,-0.1322916 -0.07329,0 -0.1322916,0.059002 -0.1322916,0.1322916 z m 0,-1.0583333 c 0,0.07329 0.059002,0.1322917 0.1322916,0.1322917 0.07329,0 0.1322917,-0.059002 0.1322917,-0.1322917 0,-0.07329 -0.059002,-0.1322916 -0.1322917,-0.1322916 -0.07329,0 -0.1322916,0.059002 -0.1322916,0.1322916 z m 0,-1.0583332 c 0,0.073289 0.059002,0.1322916 0.1322916,0.1322916 0.07329,0 0.1322917,-0.059002 0.1322917,-0.1322916 0,-0.07329 -0.059002,-0.1322917 -0.1322917,-0.1322917 -0.07329,0 -0.1322916,0.059002 -0.1322916,0.1322917 z m 0,-1.0583333 c 0,0.07329 0.059002,0.1322916 0.1322916,0.1322916 0.07329,0 0.1322917,-0.059002 0.1322917,-0.1322916 0,-0.07329 -0.059002,-0.1322917 -0.1322917,-0.1322917 -0.07329,0 -0.1322916,0.059002 -0.1322916,0.1322917 z m 0,-1.0583333 c 0,0.07329 0.059002,0.1322917 0.1322916,0.1322917 0.07329,0 0.1322917,-0.059002 0.1322917,-0.1322917 0,-0.07329 -0.059002,-0.1322917 -0.1322917,-0.1322917 -0.07329,0 -0.1322916,0.059002 -0.1322916,0.1322917 z m 0,-1.0583333 c 0,0.07329 0.059002,0.1322917 0.1322916,0.1322917 0.07329,0 0.1322917,-0.059002 0.1322917,-0.1322917 0,-0.07329 -0.059002,-0.1322916 -0.1322917,-0.1322916 -0.07329,0 -0.1322916,0.059002 -0.1322916,0.1322916 z m 0.5291666,8.9958329 c 0,0.0732896 0.059002,0.13229166 0.1322917,0.13229166 0.07329,0 0.1322916,-0.0590021 0.1322916,-0.13229166 0,-0.0732896 -0.059002,-0.13229166 -0.1322916,-0.13229166 -0.07329,0 -0.1322917,0.0590021 -0.1322917,0.13229166 z m 0,-1.0583333 c 0,0.07329 0.059002,0.1322917 0.1322917,0.1322917 0.07329,0 0.1322916,-0.059002 0.1322916,-0.1322917 0,-0.07329 -0.059002,-0.1322916 -0.1322916,-0.1322916 -0.07329,0 -0.1322917,0.059002 -0.1322917,0.1322916 z m 0,-1.0583333 c 0,0.07329 0.059002,0.1322917 0.1322917,0.1322917 0.07329,0 0.1322916,-0.059002 0.1322916,-0.1322917 0,-0.07329 -0.059002,-0.1322916 -0.1322916,-0.1322916 -0.07329,0 -0.1322917,0.059002 -0.1322917,0.1322916 z m 0,-1.0583332 c 0,0.07329 0.059002,0.1322916 0.1322917,0.1322916 0.07329,0 0.1322916,-0.059002 0.1322916,-0.1322916 0,-0.07329 -0.059002,-0.1322917 -0.1322916,-0.1322917 -0.07329,0 -0.1322917,0.059002 -0.1322917,0.1322917 z m 0,-1.0583333 c 0,0.07329 0.059002,0.1322916 0.1322917,0.1322916 0.07329,0 0.1322916,-0.059002 0.1322916,-0.1322916 0,-0.07329 -0.059002,-0.1322917 -0.1322916,-0.1322917 -0.07329,0 -0.1322917,0.059002 -0.1322917,0.1322917 z m 0,-1.0583333 c 0,0.07329 0.059002,0.1322917 0.1322917,0.1322917 0.07329,0 0.1322916,-0.059002 0.1322916,-0.1322917 0,-0.07329 -0.059002,-0.1322917 -0.1322916,-0.1322917 -0.07329,0 -0.1322917,0.059002 -0.1322917,0.1322917 z m 0,-1.0583333 c 0,0.07329 0.059002,0.1322917 0.1322917,0.1322917 0.07329,0 0.1322916,-0.059002 0.1322916,-0.1322917 0,-0.07329 -0.059002,-0.1322916 -0.1322916,-0.1322916 -0.07329,0 -0.1322917,0.059002 -0.1322917,0.1322916 z m 0,-1.0583333 c 0,0.07329 0.059002,0.1322917 0.1322917,0.1322917 0.07329,0 0.1322916,-0.059002 0.1322916,-0.1322917 0,-0.07329 -0.059002,-0.1322916 -0.1322916,-0.1322916 -0.07329,0 -0.1322917,0.059002 -0.1322917,0.1322916 z m 0,-1.0583332 c 0,0.073289 0.059002,0.1322916 0.1322917,0.1322916 0.07329,0 0.1322916,-0.059002 0.1322916,-0.1322916 0,-0.07329 -0.059002,-0.1322917 -0.1322916,-0.1322917 -0.07329,0 -0.1322917,0.059002 -0.1322917,0.1322917 z m 0,-1.0583335 c 0,0.07329 0.059002,0.132292 0.1322917,0.132292 0.07329,0 0.1322916,-0.059 0.1322916,-0.132292 0,-0.07329 -0.059002,-0.132291 -0.1322916,-0.132291 -0.07329,0 -0.1322917,0.059 -0.1322917,0.132291 z M 4.7624998,-0.13229166 C 4.7624998,-0.05900208 4.8215018,0 4.8947914,0 c 0.07329,0 0.1322917,-0.05900208 0.1322917,-0.13229166 0,-0.0732896 -0.059002,-0.13229166 -0.1322917,-0.13229166 -0.07329,0 -0.1322916,0.0590021 -0.1322916,0.13229166 z m 0,-1.05833324 c 0,0.07329 0.059002,0.1322916 0.1322916,0.1322916 0.07329,0 0.1322917,-0.059002 0.1322917,-0.1322916 0,-0.07329 -0.059002,-0.1322917 -0.1322917,-0.1322917 -0.07329,0 -0.1322916,0.059002 -0.1322916,0.1322917 z m 0,-1.0583333 c 0,0.07329 0.059002,0.1322916 0.1322916,0.1322916 0.07329,0 0.1322917,-0.059002 0.1322917,-0.1322916 0,-0.07329 -0.059002,-0.1322917 -0.1322917,-0.1322917 -0.07329,0 -0.1322916,0.059002 -0.1322916,0.1322917 z m 0,-1.0583333 c 0,0.07329 0.059002,0.1322917 0.1322916,0.1322917 0.07329,0 0.1322917,-0.059002 0.1322917,-0.1322917 0,-0.07329 -0.059002,-0.1322917 -0.1322917,-0.1322917 -0.07329,0 -0.1322916,0.059002 -0.1322916,0.1322917 z m 0,-1.0583333 c 0,0.07329 0.059002,0.1322917 0.1322916,0.1322917 0.07329,0 0.1322917,-0.059002 0.1322917,-0.1322917 0,-0.07329 -0.059002,-0.1322916 -0.1322917,-0.1322916 -0.07329,0 -0.1322916,0.059002 -0.1322916,0.1322916 z m 0,-1.0583333 c 0,0.07329 0.059002,0.1322917 0.1322916,0.1322917 0.07329,0 0.1322917,-0.059002 0.1322917,-0.1322917 0,-0.07329 -0.059002,-0.1322916 -0.1322917,-0.1322916 -0.07329,0 -0.1322916,0.059002 -0.1322916,0.1322916 z m 0,-1.0583332 c 0,0.073289 0.059002,0.1322916 0.1322916,0.1322916 0.07329,0 0.1322917,-0.059002 0.1322917,-0.1322916 0,-0.07329 -0.059002,-0.1322917 -0.1322917,-0.1322917 -0.07329,0 -0.1322916,0.059002 -0.1322916,0.1322917 z m 0,-1.0583333 c 0,0.07329 0.059002,0.1322916 0.1322916,0.1322916 0.07329,0 0.1322917,-0.059002 0.1322917,-0.1322916 0,-0.07329 -0.059002,-0.1322917 -0.1322917,-0.1322917 -0.07329,0 -0.1322916,0.059002 -0.1322916,0.1322917 z m 0,-1.0583333 c 0,0.07329 0.059002,0.1322917 0.1322916,0.1322917 0.07329,0 0.1322917,-0.059002 0.1322917,-0.1322917 0,-0.07329 -0.059002,-0.1322917 -0.1322917,-0.1322917 -0.07329,0 -0.1322916,0.059002 -0.1322916,0.1322917 z m 0,-1.0583333 c 0,0.07329 0.059002,0.1322917 0.1322916,0.1322917 0.07329,0 0.1322917,-0.059002 0.1322917,-0.1322917 0,-0.07329 -0.059002,-0.1322916 -0.1322917,-0.1322916 -0.07329,0 -0.1322916,0.059002 -0.1322916,0.1322916 z m 0.5291666,8.9958329 c 0,0.0732896 0.059002,0.13229166 0.1322917,0.13229166 0.073289,0 0.1322916,-0.0590021 0.1322916,-0.13229166 0,-0.0732896 -0.059002,-0.13229166 -0.1322916,-0.13229166 -0.07329,0 -0.1322917,0.0590021 -0.1322917,0.13229166 z m 0,-1.0583333 c 0,0.07329 0.059002,0.1322917 0.1322917,0.1322917 0.073289,0 0.1322916,-0.059002 0.1322916,-0.1322917 0,-0.07329 -0.059002,-0.1322916 -0.1322916,-0.1322916 -0.07329,0 -0.1322917,0.059002 -0.1322917,0.1322916 z m 0,-1.0583333 c 0,0.07329 0.059002,0.1322917 0.1322917,0.1322917 0.073289,0 0.1322916,-0.059002 0.1322916,-0.1322917 0,-0.07329 -0.059002,-0.1322916 -0.1322916,-0.1322916 -0.07329,0 -0.1322917,0.059002 -0.1322917,0.1322916 z m 0,-1.0583332 c 0,0.07329 0.059002,0.1322916 0.1322917,0.1322916 0.073289,0 0.1322916,-0.059002 0.1322916,-0.1322916 0,-0.07329 -0.059002,-0.1322917 -0.1322916,-0.1322917 -0.07329,0 -0.1322917,0.059002 -0.1322917,0.1322917 z m 0,-1.0583333 c 0,0.07329 0.059002,0.1322916 0.1322917,0.1322916 0.073289,0 0.1322916,-0.059002 0.1322916,-0.1322916 0,-0.07329 -0.059002,-0.1322917 -0.1322916,-0.1322917 -0.07329,0 -0.1322917,0.059002 -0.1322917,0.1322917 z m 0,-1.0583333 c 0,0.07329 0.059002,0.1322917 0.1322917,0.1322917 0.073289,0 0.1322916,-0.059002 0.1322916,-0.1322917 0,-0.07329 -0.059002,-0.1322917 -0.1322916,-0.1322917 -0.07329,0 -0.1322917,0.059002 -0.1322917,0.1322917 z m 0,-1.0583333 c 0,0.07329 0.059002,0.1322917 0.1322917,0.1322917 0.073289,0 0.1322916,-0.059002 0.1322916,-0.1322917 0,-0.07329 -0.059002,-0.1322916 -0.1322916,-0.1322916 -0.07329,0 -0.1322917,0.059002 -0.1322917,0.1322916 z m 0,-1.0583333 c 0,0.07329 0.059002,0.1322917 0.1322917,0.1322917 0.073289,0 0.1322916,-0.059002 0.1322916,-0.1322917 0,-0.07329 -0.059002,-0.1322916 -0.1322916,-0.1322916 -0.07329,0 -0.1322917,0.059002 -0.1322917,0.1322916 z m 0,-1.0583332 c 0,0.073289 0.059002,0.1322916 0.1322917,0.1322916 0.073289,0 0.1322916,-0.059002 0.1322916,-0.1322916 0,-0.07329 -0.059002,-0.1322917 -0.1322916,-0.1322917 -0.07329,0 -0.1322917,0.059002 -0.1322917,0.1322917 z m 0,-1.0583335 c 0,0.07329 0.059002,0.132292 0.1322917,0.132292 0.073289,0 0.1322916,-0.059 0.1322916,-0.132292 0,-0.07329 -0.059002,-0.132291 -0.1322916,-0.132291 -0.07329,0 -0.1322917,0.059 -0.1322917,0.132291 z M 5.820833,-0.13229166 C 5.820833,-0.05900208 5.8798351,0 5.9531247,0 c 0.07329,0 0.1322917,-0.05900208 0.1322917,-0.13229166 0,-0.0732896 -0.059002,-0.13229166 -0.1322917,-0.13229166 -0.07329,0 -0.1322917,0.0590021 -0.1322917,0.13229166 z m 0,-1.05833324 c 0,0.07329 0.059002,0.1322916 0.1322917,0.1322916 0.07329,0 0.1322917,-0.059002 0.1322917,-0.1322916 0,-0.07329 -0.059002,-0.1322917 -0.1322917,-0.1322917 -0.07329,0 -0.1322917,0.059002 -0.1322917,0.1322917 z m 0,-1.0583333 c 0,0.07329 0.059002,0.1322916 0.1322917,0.1322916 0.07329,0 0.1322917,-0.059002 0.1322917,-0.1322916 0,-0.07329 -0.059002,-0.1322917 -0.1322917,-0.1322917 -0.07329,0 -0.1322917,0.059002 -0.1322917,0.1322917 z m 0,-1.0583333 c 0,0.07329 0.059002,0.1322917 0.1322917,0.1322917 0.07329,0 0.1322917,-0.059002 0.1322917,-0.1322917 0,-0.07329 -0.059002,-0.1322917 -0.1322917,-0.1322917 -0.07329,0 -0.1322917,0.059002 -0.1322917,0.1322917 z m 0,-1.0583333 c 0,0.07329 0.059002,0.1322917 0.1322917,0.1322917 0.07329,0 0.1322917,-0.059002 0.1322917,-0.1322917 0,-0.07329 -0.059002,-0.1322916 -0.1322917,-0.1322916 -0.07329,0 -0.1322917,0.059002 -0.1322917,0.1322916 z m 0,-1.0583333 c 0,0.07329 0.059002,0.1322917 0.1322917,0.1322917 0.07329,0 0.1322917,-0.059002 0.1322917,-0.1322917 0,-0.07329 -0.059002,-0.1322916 -0.1322917,-0.1322916 -0.07329,0 -0.1322917,0.059002 -0.1322917,0.1322916 z m 0,-1.0583332 c 0,0.073289 0.059002,0.1322916 0.1322917,0.1322916 0.07329,0 0.1322917,-0.059002 0.1322917,-0.1322916 0,-0.07329 -0.059002,-0.1322917 -0.1322917,-0.1322917 -0.07329,0 -0.1322917,0.059002 -0.1322917,0.1322917 z m 0,-1.0583333 c 0,0.07329 0.059002,0.1322916 0.1322917,0.1322916 0.07329,0 0.1322917,-0.059002 0.1322917,-0.1322916 0,-0.07329 -0.059002,-0.1322917 -0.1322917,-0.1322917 -0.07329,0 -0.1322917,0.059002 -0.1322917,0.1322917 z m 0,-1.0583333 c 0,0.07329 0.059002,0.1322917 0.1322917,0.1322917 0.07329,0 0.1322917,-0.059002 0.1322917,-0.1322917 0,-0.07329 -0.059002,-0.1322917 -0.1322917,-0.1322917 -0.07329,0 -0.1322917,0.059002 -0.1322917,0.1322917 z m 0,-1.0583333 c 0,0.07329 0.059002,0.1322917 0.1322917,0.1322917 0.07329,0 0.1322917,-0.059002 0.1322917,-0.1322917 0,-0.07329 -0.059002,-0.1322916 -0.1322917,-0.1322916 -0.07329,0 -0.1322917,0.059002 -0.1322917,0.1322916 z m 0.5291667,8.9958329 c 0,0.0732896 0.059002,0.13229166 0.1322916,0.13229166 0.07329,0 0.1322917,-0.0590021 0.1322917,-0.13229166 0,-0.0732896 -0.059002,-0.13229166 -0.1322917,-0.13229166 -0.073289,0 -0.1322916,0.0590021 -0.1322916,0.13229166 z m 0,-1.0583333 c 0,0.07329 0.059002,0.1322917 0.1322916,0.1322917 0.07329,0 0.1322917,-0.059002 0.1322917,-0.1322917 0,-0.07329 -0.059002,-0.1322916 -0.1322917,-0.1322916 -0.073289,0 -0.1322916,0.059002 -0.1322916,0.1322916 z m 0,-1.0583333 c 0,0.07329 0.059002,0.1322917 0.1322916,0.1322917 0.07329,0 0.1322917,-0.059002 0.1322917,-0.1322917 0,-0.07329 -0.059002,-0.1322916 -0.1322917,-0.1322916 -0.073289,0 -0.1322916,0.059002 -0.1322916,0.1322916 z m 0,-1.0583332 c 0,0.07329 0.059002,0.1322916 0.1322916,0.1322916 0.07329,0 0.1322917,-0.059002 0.1322917,-0.1322916 0,-0.07329 -0.059002,-0.1322917 -0.1322917,-0.1322917 -0.073289,0 -0.1322916,0.059002 -0.1322916,0.1322917 z m 0,-1.0583333 c 0,0.07329 0.059002,0.1322916 0.1322916,0.1322916 0.07329,0 0.1322917,-0.059002 0.1322917,-0.1322916 0,-0.07329 -0.059002,-0.1322917 -0.1322917,-0.1322917 -0.073289,0 -0.1322916,0.059002 -0.1322916,0.1322917 z m 0,-1.0583333 c 0,0.07329 0.059002,0.1322917 0.1322916,0.1322917 0.07329,0 0.1322917,-0.059002 0.1322917,-0.1322917 0,-0.07329 -0.059002,-0.1322917 -0.1322917,-0.1322917 -0.073289,0 -0.1322916,0.059002 -0.1322916,0.1322917 z m 0,-1.0583333 c 0,0.07329 0.059002,0.1322917 0.1322916,0.1322917 0.07329,0 0.1322917,-0.059002 0.1322917,-0.1322917 0,-0.07329 -0.059002,-0.1322916 -0.1322917,-0.1322916 -0.073289,0 -0.1322916,0.059002 -0.1322916,0.1322916 z m 0,-1.0583333 c 0,0.07329 0.059002,0.1322917 0.1322916,0.1322917 0.07329,0 0.1322917,-0.059002 0.1322917,-0.1322917 0,-0.07329 -0.059002,-0.1322916 -0.1322917,-0.1322916 -0.073289,0 -0.1322916,0.059002 -0.1322916,0.1322916 z m 0,-1.0583332 c 0,0.073289 0.059002,0.1322916 0.1322916,0.1322916 0.07329,0 0.1322917,-0.059002 0.1322917,-0.1322916 0,-0.07329 -0.059002,-0.1322917 -0.1322917,-0.1322917 -0.073289,0 -0.1322916,0.059002 -0.1322916,0.1322917 z m 0,-1.0583335 c 0,0.07329 0.059002,0.132292 0.1322916,0.132292 0.07329,0 0.1322917,-0.059 0.1322917,-0.132292 0,-0.07329 -0.059002,-0.132291 -0.1322917,-0.132291 -0.073289,0 -0.1322916,0.059 -0.1322916,0.132291 z M 6.8791663,-0.13229166 C 6.8791663,-0.05900208 6.9381684,0 7.011458,0 c 0.07329,0 0.1322916,-0.05900208 0.1322916,-0.13229166 0,-0.0732896 -0.059002,-0.13229166 -0.1322916,-0.13229166 -0.07329,0 -0.1322917,0.0590021 -0.1322917,0.13229166 z m 0,-1.05833324 c 0,0.07329 0.059002,0.1322916 0.1322917,0.1322916 0.07329,0 0.1322916,-0.059002 0.1322916,-0.1322916 0,-0.07329 -0.059002,-0.1322917 -0.1322916,-0.1322917 -0.07329,0 -0.1322917,0.059002 -0.1322917,0.1322917 z m 0,-1.0583333 c 0,0.07329 0.059002,0.1322916 0.1322917,0.1322916 0.07329,0 0.1322916,-0.059002 0.1322916,-0.1322916 0,-0.07329 -0.059002,-0.1322917 -0.1322916,-0.1322917 -0.07329,0 -0.1322917,0.059002 -0.1322917,0.1322917 z m 0,-1.0583333 c 0,0.07329 0.059002,0.1322917 0.1322917,0.1322917 0.07329,0 0.1322916,-0.059002 0.1322916,-0.1322917 0,-0.07329 -0.059002,-0.1322917 -0.1322916,-0.1322917 -0.07329,0 -0.1322917,0.059002 -0.1322917,0.1322917 z m 0,-1.0583333 c 0,0.07329 0.059002,0.1322917 0.1322917,0.1322917 0.07329,0 0.1322916,-0.059002 0.1322916,-0.1322917 0,-0.07329 -0.059002,-0.1322916 -0.1322916,-0.1322916 -0.07329,0 -0.1322917,0.059002 -0.1322917,0.1322916 z m 0,-1.0583333 c 0,0.07329 0.059002,0.1322917 0.1322917,0.1322917 0.07329,0 0.1322916,-0.059002 0.1322916,-0.1322917 0,-0.07329 -0.059002,-0.1322916 -0.1322916,-0.1322916 -0.07329,0 -0.1322917,0.059002 -0.1322917,0.1322916 z m 0,-1.0583332 c 0,0.073289 0.059002,0.1322916 0.1322917,0.1322916 0.07329,0 0.1322916,-0.059002 0.1322916,-0.1322916 0,-0.07329 -0.059002,-0.1322917 -0.1322916,-0.1322917 -0.07329,0 -0.1322917,0.059002 -0.1322917,0.1322917 z m 0,-1.0583333 c 0,0.07329 0.059002,0.1322916 0.1322917,0.1322916 0.07329,0 0.1322916,-0.059002 0.1322916,-0.1322916 0,-0.07329 -0.059002,-0.1322917 -0.1322916,-0.1322917 -0.07329,0 -0.1322917,0.059002 -0.1322917,0.1322917 z m 0,-1.0583333 c 0,0.07329 0.059002,0.1322917 0.1322917,0.1322917 0.07329,0 0.1322916,-0.059002 0.1322916,-0.1322917 0,-0.07329 -0.059002,-0.1322917 -0.1322916,-0.1322917 -0.07329,0 -0.1322917,0.059002 -0.1322917,0.1322917 z m 0,-1.0583333 c 0,0.07329 0.059002,0.1322917 0.1322917,0.1322917 0.07329,0 0.1322916,-0.059002 0.1322916,-0.1322917 0,-0.07329 -0.059002,-0.1322916 -0.1322916,-0.1322916 -0.07329,0 -0.1322917,0.059002 -0.1322917,0.1322916 z m 0.5291667,8.9958329 c 0,0.0732896 0.059002,0.13229166 0.1322916,0.13229166 0.07329,0 0.1322917,-0.0590021 0.1322917,-0.13229166 0,-0.0732896 -0.059002,-0.13229166 -0.1322917,-0.13229166 -0.07329,0 -0.1322916,0.0590021 -0.1322916,0.13229166 z m 0,-1.0583333 c 0,0.07329 0.059002,0.1322917 0.1322916,0.1322917 0.07329,0 0.1322917,-0.059002 0.1322917,-0.1322917 0,-0.07329 -0.059002,-0.1322916 -0.1322917,-0.1322916 -0.07329,0 -0.1322916,0.059002 -0.1322916,0.1322916 z m 0,-1.0583333 c 0,0.07329 0.059002,0.1322917 0.1322916,0.1322917 0.07329,0 0.1322917,-0.059002 0.1322917,-0.1322917 0,-0.07329 -0.059002,-0.1322916 -0.1322917,-0.1322916 -0.07329,0 -0.1322916,0.059002 -0.1322916,0.1322916 z m 0,-1.0583332 c 0,0.07329 0.059002,0.1322916 0.1322916,0.1322916 0.07329,0 0.1322917,-0.059002 0.1322917,-0.1322916 0,-0.07329 -0.059002,-0.1322917 -0.1322917,-0.1322917 -0.07329,0 -0.1322916,0.059002 -0.1322916,0.1322917 z m 0,-1.0583333 c 0,0.07329 0.059002,0.1322916 0.1322916,0.1322916 0.07329,0 0.1322917,-0.059002 0.1322917,-0.1322916 0,-0.07329 -0.059002,-0.1322917 -0.1322917,-0.1322917 -0.07329,0 -0.1322916,0.059002 -0.1322916,0.1322917 z m 0,-1.0583333 c 0,0.07329 0.059002,0.1322917 0.1322916,0.1322917 0.07329,0 0.1322917,-0.059002 0.1322917,-0.1322917 0,-0.07329 -0.059002,-0.1322917 -0.1322917,-0.1322917 -0.07329,0 -0.1322916,0.059002 -0.1322916,0.1322917 z m 0,-1.0583333 c 0,0.07329 0.059002,0.1322917 0.1322916,0.1322917 0.07329,0 0.1322917,-0.059002 0.1322917,-0.1322917 0,-0.07329 -0.059002,-0.1322916 -0.1322917,-0.1322916 -0.07329,0 -0.1322916,0.059002 -0.1322916,0.1322916 z m 0,-1.0583333 c 0,0.07329 0.059002,0.1322917 0.1322916,0.1322917 0.07329,0 0.1322917,-0.059002 0.1322917,-0.1322917 0,-0.07329 -0.059002,-0.1322916 -0.1322917,-0.1322916 -0.07329,0 -0.1322916,0.059002 -0.1322916,0.1322916 z m 0,-1.0583332 c 0,0.073289 0.059002,0.1322916 0.1322916,0.1322916 0.07329,0 0.1322917,-0.059002 0.1322917,-0.1322916 0,-0.07329 -0.059002,-0.1322917 -0.1322917,-0.1322917 -0.07329,0 -0.1322916,0.059002 -0.1322916,0.1322917 z m 0.5291666,8.99583284 C 7.9374996,-0.05900208 7.9965017,0 8.0697913,0 c 0.073289,0 0.1322916,-0.05900208 0.1322916,-0.13229166 0,-0.0732896 -0.059002,-0.13229166 -0.1322916,-0.13229166 -0.07329,0 -0.1322917,0.0590021 -0.1322917,0.13229166 z m 0,-1.05833324 c 0,0.07329 0.059002,0.1322916 0.1322917,0.1322916 0.073289,0 0.1322916,-0.059002 0.1322916,-0.1322916 0,-0.07329 -0.059002,-0.1322917 -0.1322916,-0.1322917 -0.07329,0 -0.1322917,0.059002 -0.1322917,0.1322917 z m 0,-1.0583333 c 0,0.07329 0.059002,0.1322916 0.1322917,0.1322916 0.073289,0 0.1322916,-0.059002 0.1322916,-0.1322916 0,-0.07329 -0.059002,-0.1322917 -0.1322916,-0.1322917 -0.07329,0 -0.1322917,0.059002 -0.1322917,0.1322917 z m 0,-1.0583333 c 0,0.07329 0.059002,0.1322917 0.1322917,0.1322917 0.073289,0 0.1322916,-0.059002 0.1322916,-0.1322917 0,-0.07329 -0.059002,-0.1322917 -0.1322916,-0.1322917 -0.07329,0 -0.1322917,0.059002 -0.1322917,0.1322917 z m 0,-1.0583333 c 0,0.07329 0.059002,0.1322917 0.1322917,0.1322917 0.073289,0 0.1322916,-0.059002 0.1322916,-0.1322917 0,-0.07329 -0.059002,-0.1322916 -0.1322916,-0.1322916 -0.07329,0 -0.1322917,0.059002 -0.1322917,0.1322916 z m 0,-1.0583333 c 0,0.07329 0.059002,0.1322917 0.1322917,0.1322917 0.073289,0 0.1322916,-0.059002 0.1322916,-0.1322917 0,-0.07329 -0.059002,-0.1322916 -0.1322916,-0.1322916 -0.07329,0 -0.1322917,0.059002 -0.1322917,0.1322916 z m 0,-1.0583332 c 0,0.073289 0.059002,0.1322916 0.1322917,0.1322916 0.073289,0 0.1322916,-0.059002 0.1322916,-0.1322916 0,-0.07329 -0.059002,-0.1322917 -0.1322916,-0.1322917 -0.07329,0 -0.1322917,0.059002 -0.1322917,0.1322917 z m 0,-1.0583333 c 0,0.07329 0.059002,0.1322916 0.1322917,0.1322916 0.073289,0 0.1322916,-0.059002 0.1322916,-0.1322916 0,-0.07329 -0.059002,-0.1322917 -0.1322916,-0.1322917 -0.07329,0 -0.1322917,0.059002 -0.1322917,0.1322917 z m 0,-1.0583333 c 0,0.07329 0.059002,0.1322917 0.1322917,0.1322917 0.073289,0 0.1322916,-0.059002 0.1322916,-0.1322917 0,-0.07329 -0.059002,-0.1322917 -0.1322916,-0.1322917 -0.07329,0 -0.1322917,0.059002 -0.1322917,0.1322917 z m 0,-1.0583333 c 0,0.07329 0.059002,0.1322917 0.1322917,0.1322917 0.073289,0 0.1322916,-0.059002 0.1322916,-0.1322917 0,-0.07329 -0.059002,-0.1322916 -0.1322916,-0.1322916 -0.07329,0 -0.1322917,0.059002 -0.1322917,0.1322916 z m 0.5291666,8.9958329 c 0,0.0732896 0.059002,0.13229166 0.1322917,0.13229166 0.07329,0 0.1322917,-0.0590021 0.1322917,-0.13229166 0,-0.0732896 -0.059002,-0.13229166 -0.1322917,-0.13229166 -0.07329,0 -0.1322917,0.0590021 -0.1322917,0.13229166 z m 0,-1.0583333 c 0,0.07329 0.059002,0.1322917 0.1322917,0.1322917 0.07329,0 0.1322917,-0.059002 0.1322917,-0.1322917 0,-0.07329 -0.059002,-0.1322916 -0.1322917,-0.1322916 -0.07329,0 -0.1322917,0.059002 -0.1322917,0.1322916 z m 0,-1.0583333 c 0,0.07329 0.059002,0.1322917 0.1322917,0.1322917 0.07329,0 0.1322917,-0.059002 0.1322917,-0.1322917 0,-0.07329 -0.059002,-0.1322916 -0.1322917,-0.1322916 -0.07329,0 -0.1322917,0.059002 -0.1322917,0.1322916 z m 0,-1.0583332 c 0,0.07329 0.059002,0.1322916 0.1322917,0.1322916 0.07329,0 0.1322917,-0.059002 0.1322917,-0.1322916 0,-0.07329 -0.059002,-0.1322917 -0.1322917,-0.1322917 -0.07329,0 -0.1322917,0.059002 -0.1322917,0.1322917 z m 0,-1.0583333 c 0,0.07329 0.059002,0.1322916 0.1322917,0.1322916 0.07329,0 0.1322917,-0.059002 0.1322917,-0.1322916 0,-0.07329 -0.059002,-0.1322917 -0.1322917,-0.1322917 -0.07329,0 -0.1322917,0.059002 -0.1322917,0.1322917 z m 0,-1.0583333 c 0,0.07329 0.059002,0.1322917 0.1322917,0.1322917 0.07329,0 0.1322917,-0.059002 0.1322917,-0.1322917 0,-0.07329 -0.059002,-0.1322917 -0.1322917,-0.1322917 -0.07329,0 -0.1322917,0.059002 -0.1322917,0.1322917 z m 0,-1.0583333 c 0,0.07329 0.059002,0.1322917 0.1322917,0.1322917 0.07329,0 0.1322917,-0.059002 0.1322917,-0.1322917 0,-0.07329 -0.059002,-0.1322916 -0.1322917,-0.1322916 -0.07329,0 -0.1322917,0.059002 -0.1322917,0.1322916 z m 0,-1.0583333 c 0,0.07329 0.059002,0.1322917 0.1322917,0.1322917 0.07329,0 0.1322917,-0.059002 0.1322917,-0.1322917 0,-0.07329 -0.059002,-0.1322916 -0.1322917,-0.1322916 -0.07329,0 -0.1322917,0.059002 -0.1322917,0.1322916 z m 0,-1.0583332 c 0,0.073289 0.059002,0.1322916 0.1322917,0.1322916 0.07329,0 0.1322917,-0.059002 0.1322917,-0.1322916 0,-0.07329 -0.059002,-0.1322917 -0.1322917,-0.1322917 -0.07329,0 -0.1322917,0.059002 -0.1322917,0.1322917 z m 0.5291667,8.99583284 C 8.9958329,-0.05900208 9.054835,0 9.1281245,0 c 0.07329,0 0.1322917,-0.05900208 0.1322917,-0.13229166 0,-0.0732896 -0.059002,-0.13229166 -0.1322917,-0.13229166 -0.073289,0 -0.1322916,0.0590021 -0.1322916,0.13229166 z m 0,-1.05833324 c 0,0.07329 0.059002,0.1322916 0.1322916,0.1322916 0.07329,0 0.1322917,-0.059002 0.1322917,-0.1322916 0,-0.07329 -0.059002,-0.1322917 -0.1322917,-0.1322917 -0.073289,0 -0.1322916,0.059002 -0.1322916,0.1322917 z m 0,-1.0583333 c 0,0.07329 0.059002,0.1322916 0.1322916,0.1322916 0.07329,0 0.1322917,-0.059002 0.1322917,-0.1322916 0,-0.07329 -0.059002,-0.1322917 -0.1322917,-0.1322917 -0.073289,0 -0.1322916,0.059002 -0.1322916,0.1322917 z m 0,-1.0583333 c 0,0.07329 0.059002,0.1322917 0.1322916,0.1322917 0.07329,0 0.1322917,-0.059002 0.1322917,-0.1322917 0,-0.07329 -0.059002,-0.1322917 -0.1322917,-0.1322917 -0.073289,0 -0.1322916,0.059002 -0.1322916,0.1322917 z m 0,-1.0583333 c 0,0.07329 0.059002,0.1322917 0.1322916,0.1322917 0.07329,0 0.1322917,-0.059002 0.1322917,-0.1322917 0,-0.07329 -0.059002,-0.1322916 -0.1322917,-0.1322916 -0.073289,0 -0.1322916,0.059002 -0.1322916,0.1322916 z m 0,-1.0583333 c 0,0.07329 0.059002,0.1322917 0.1322916,0.1322917 0.07329,0 0.1322917,-0.059002 0.1322917,-0.1322917 0,-0.07329 -0.059002,-0.1322916 -0.1322917,-0.1322916 -0.073289,0 -0.1322916,0.059002 -0.1322916,0.1322916 z m 0,-1.0583332 c 0,0.073289 0.059002,0.1322916 0.1322916,0.1322916 0.07329,0 0.1322917,-0.059002 0.1322917,-0.1322916 0,-0.07329 -0.059002,-0.1322917 -0.1322917,-0.1322917 -0.073289,0 -0.1322916,0.059002 -0.1322916,0.1322917 z m 0,-1.0583333 c 0,0.07329 0.059002,0.1322916 0.1322916,0.1322916 0.07329,0 0.1322917,-0.059002 0.1322917,-0.1322916 0,-0.07329 -0.059002,-0.1322917 -0.1322917,-0.1322917 -0.073289,0 -0.1322916,0.059002 -0.1322916,0.1322917 z m 0,-1.0583333 c 0,0.07329 0.059002,0.1322917 0.1322916,0.1322917 0.07329,0 0.1322917,-0.059002 0.1322917,-0.1322917 0,-0.07329 -0.059002,-0.1322917 -0.1322917,-0.1322917 -0.073289,0 -0.1322916,0.059002 -0.1322916,0.1322917 z m 0.5291666,7.9374996 c 0,0.0732896 0.059002,0.13229166 0.1322917,0.13229166 0.07329,0 0.1322916,-0.0590021 0.1322916,-0.13229166 0,-0.0732896 -0.059002,-0.13229166 -0.1322916,-0.13229166 -0.07329,0 -0.1322917,0.0590021 -0.1322917,0.13229166 z m 0,-1.0583333 c 0,0.07329 0.059002,0.1322917 0.1322917,0.1322917 0.07329,0 0.1322916,-0.059002 0.1322916,-0.1322917 0,-0.07329 -0.059002,-0.1322916 -0.1322916,-0.1322916 -0.07329,0 -0.1322917,0.059002 -0.1322917,0.1322916 z m 0,-1.0583333 c 0,0.07329 0.059002,0.1322917 0.1322917,0.1322917 0.07329,0 0.1322916,-0.059002 0.1322916,-0.1322917 0,-0.07329 -0.059002,-0.1322916 -0.1322916,-0.1322916 -0.07329,0 -0.1322917,0.059002 -0.1322917,0.1322916 z m 0,-1.0583332 c 0,0.07329 0.059002,0.1322916 0.1322917,0.1322916 0.07329,0 0.1322916,-0.059002 0.1322916,-0.1322916 0,-0.07329 -0.059002,-0.1322917 -0.1322916,-0.1322917 -0.07329,0 -0.1322917,0.059002 -0.1322917,0.1322917 z m 0,-1.0583333 c 0,0.07329 0.059002,0.1322916 0.1322917,0.1322916 0.07329,0 0.1322916,-0.059002 0.1322916,-0.1322916 0,-0.07329 -0.059002,-0.1322917 -0.1322916,-0.1322917 -0.07329,0 -0.1322917,0.059002 -0.1322917,0.1322917 z m 0,-1.0583333 c 0,0.07329 0.059002,0.1322917 0.1322917,0.1322917 0.07329,0 0.1322916,-0.059002 0.1322916,-0.1322917 0,-0.07329 -0.059002,-0.1322917 -0.1322916,-0.1322917 -0.07329,0 -0.1322917,0.059002 -0.1322917,0.1322917 z m 0,-1.0583333 c 0,0.07329 0.059002,0.1322917 0.1322917,0.1322917 0.07329,0 0.1322916,-0.059002 0.1322916,-0.1322917 0,-0.07329 -0.059002,-0.1322916 -0.1322916,-0.1322916 -0.07329,0 -0.1322917,0.059002 -0.1322917,0.1322916 z m 0,-1.0583333 c 0,0.07329 0.059002,0.1322917 0.1322917,0.1322917 0.07329,0 0.1322916,-0.059002 0.1322916,-0.1322917 0,-0.07329 -0.059002,-0.1322916 -0.1322916,-0.1322916 -0.07329,0 -0.1322917,0.059002 -0.1322917,0.1322916 z m 0.5291665,7.93749964 C 10.054166,-0.05900208 10.113168,0 10.186458,0 c 0.07329,0 0.132291,-0.05900208 0.132291,-0.13229166 0,-0.0732896 -0.059,-0.13229166 -0.132291,-0.13229166 -0.07329,0 -0.132292,0.0590021 -0.132292,0.13229166 z m 0,-1.05833324 c 0,0.07329 0.059,0.1322916 0.132292,0.1322916 0.07329,0 0.132291,-0.059002 0.132291,-0.1322916 0,-0.07329 -0.059,-0.1322917 -0.132291,-0.1322917 -0.07329,0 -0.132292,0.059002 -0.132292,0.1322917 z m 0,-1.0583333 c 0,0.07329 0.059,0.1322916 0.132292,0.1322916 0.07329,0 0.132291,-0.059002 0.132291,-0.1322916 0,-0.07329 -0.059,-0.1322917 -0.132291,-0.1322917 -0.07329,0 -0.132292,0.059002 -0.132292,0.1322917 z m 0,-1.0583333 c 0,0.07329 0.059,0.1322917 0.132292,0.1322917 0.07329,0 0.132291,-0.059002 0.132291,-0.1322917 0,-0.07329 -0.059,-0.1322917 -0.132291,-0.1322917 -0.07329,0 -0.132292,0.059002 -0.132292,0.1322917 z m 0,-1.0583333 c 0,0.07329 0.059,0.1322917 0.132292,0.1322917 0.07329,0 0.132291,-0.059002 0.132291,-0.1322917 0,-0.07329 -0.059,-0.1322916 -0.132291,-0.1322916 -0.07329,0 -0.132292,0.059002 -0.132292,0.1322916 z m 0,-1.0583333 c 0,0.07329 0.059,0.1322917 0.132292,0.1322917 0.07329,0 0.132291,-0.059002 0.132291,-0.1322917 0,-0.07329 -0.059,-0.1322916 -0.132291,-0.1322916 -0.07329,0 -0.132292,0.059002 -0.132292,0.1322916 z m 0,-1.0583332 c 0,0.073289 0.059,0.1322916 0.132292,0.1322916 0.07329,0 0.132291,-0.059002 0.132291,-0.1322916 0,-0.07329 -0.059,-0.1322917 -0.132291,-0.1322917 -0.07329,0 -0.132292,0.059002 -0.132292,0.1322917 z"
     transform="rotate(90)"
     sodipodi:nodetypes="ssssssssssssssssssssssssssssssssssssssssssssssssssssssssssssssssssssssssssssssssssssssssssssssssssssssssssssssssssssssssssssssssssssssssssssssssssssssssssssssssssssssssssssssssssssssssssssssssssssssssssssssssssssssssssssssssssssssssssssssssssssssssssssssssssssssssssssssssssssssssssssssssssssssssssssssssssssssssssssssssssssssssssssssssssssssssssssssssssssssssssssssssssssssssssssssssssssssssssssssssssssssssssssssssssssssssssssssssssssssssssssssssssssssssssssssssssssssssssssssssssssssssssssssssssssssssssssssssssssssssssssssssssssssssssssssssssssssssssssssssssssssssssssssssssssssssssssssssssssssssssssssssssssssssssssssssssssssssssssssssssssssssssssssssssssssssssssssssssssssssssssssssssssssssssssssssssssssssssssssssssssssssssssssssssssssssssssssssssssssssssssssssssssssssssssssssssssssssssssssssssssssssssssssssssssssssssssssssssssssssssssssssssssssssssssssssssssss" /><g
     id="g4"><rect
       style="fill:url(#linearGradient6);stroke-width:0.264583;paint-order:stroke fill markers"
       id="rect5"
       width="2.6458333"
       height="6.3499999"
       x="10.583333"
       y="-1.0408341e-17"
       inkscape:label="shadow" /><rect
       style="fill:url(#linearGradient1);stroke-width:0.264583;paint-order:stroke fill markers"
       id="rect5-1"
       width="2.6458333"
       height="6.3499999"
       x="10.583333"
       y="-6.3499999"
       inkscape:label="shadow"
       transform="rotate(90)" /><path
       style="fill:url(#radialGradient2);stroke-width:0.264584;paint-order:stroke fill markers"
       d="m 6.3499997,-10.58385 h 0.2651001 c 2.1963995,0 3.9687502,1.7723508 3.9687502,3.9687502 v 0.2651001 h 2.645316 V -13.229166 H 6.3499997 Z"
       transform="rotate(90)"
       id="path3"
       inkscape:label="shadow" /></g></svg>
