<?xml version="1.0" encoding="UTF-8" standalone="no"?>
<!-- Created with Inkscape (http://www.inkscape.org/) -->

<svg
   width="24"
   height="24"
   id="svg3140"
   version="1.1"
   inkscape:version="1.4.2 (ebf0e940d0, 2025-05-08)"
   sodipodi:docname="lens-nav-folder.svg"
   xml:space="preserve"
   xmlns:inkscape="http://www.inkscape.org/namespaces/inkscape"
   xmlns:sodipodi="http://sodipodi.sourceforge.net/DTD/sodipodi-0.dtd"
   xmlns="http://www.w3.org/2000/svg"
   xmlns:svg="http://www.w3.org/2000/svg"
   xmlns:rdf="http://www.w3.org/1999/02/22-rdf-syntax-ns#"
   xmlns:cc="http://creativecommons.org/ns#"
   xmlns:dc="http://purl.org/dc/elements/1.1/"><defs
     id="defs3142" /><sodipodi:namedview
     id="base"
     pagecolor="#5f5f5f"
     bordercolor="#666666"
     borderopacity="1.0"
     inkscape:pageopacity="0.0"
     inkscape:pageshadow="2"
     inkscape:zoom="11.313709"
     inkscape:cx="-3.314563"
     inkscape:cy="8.4852814"
     inkscape:document-units="px"
     inkscape:current-layer="layer1"
     showgrid="true"
     inkscape:window-width="3440"
     inkscape:window-height="1390"
     inkscape:window-x="0"
     inkscape:window-y="0"
     inkscape:window-maximized="1"
     showguides="true"
     inkscape:guide-bbox="true"
     inkscape:showpageshadow="0"
     inkscape:pagecheckerboard="true"
     inkscape:deskcolor="#505050"
     showborder="true"><inkscape:grid
       type="xygrid"
       id="grid3178"
       empspacing="8"
       visible="true"
       enabled="true"
       snapvisiblegridlinesonly="true"
       originx="0"
       originy="0"
       spacingy="1"
       spacingx="1"
       units="px" /></sodipodi:namedview><metadata
     id="metadata3145"><rdf:RDF><cc:Work
         rdf:about=""><dc:format>image/svg+xml</dc:format><dc:type
           rdf:resource="http://purl.org/dc/dcmitype/StillImage" /></cc:Work></rdf:RDF></metadata><g
     inkscape:label="Layer 1"
     inkscape:groupmode="layer"
     id="layer1"
     transform="translate(0,-1028.3622)"><path
       d="m 7.5200404,1032.5653 c -1.4152503,0.017 -2.4513752,-0.034 -3.2985004,0.4423 -0.438607,0.2527 -0.7737916,0.6564 -0.9449996,1.1382 -0.1845006,0.5006 -0.2497494,1.0972 -0.2497494,1.8481 v 9.1428 c 0,0.752 0.065249,1.3474 0.250874,1.848 0.1845,0.5017 0.5208761,0.9028 0.9450001,1.1405 0.8460001,0.4755 1.882125,0.423 3.2973753,0.4401 H 16.53354 c 1.415251,-0.017 2.451375,0.034 3.298501,-0.4401 0.423001,-0.2365 0.759374,-0.64 0.945001,-1.1405 0.184499,-0.5006 0.249749,-1.0971 0.249749,-1.848 v -6.8572 c 0,-0.752 -0.06526,-1.3474 -0.250874,-1.848 -0.0225,-0.063 -0.054,-0.1188 -0.08324,-0.1761 l -0.03038,-0.065 c -0.181954,-0.3774 -0.471166,-0.6907 -0.830249,-0.8994 -0.847126,-0.4754 -1.88325,-0.423 -3.298502,-0.44 h -3.418877 l -2.27475,-2.2857 H 7.5222884 Z m 0.5138335,1.6429 2.3459171,4e-4 1.985627,1.9954 -1.426503,0.9327 H 8.0203755 c -1.4152504,0.017 -2.4513753,-0.034 -3.2985004,0.4399 -0.024749,0.014 -0.045001,0.035 -0.06975,0.049 v -1.1315 c 0,-0.6765 0.06975,-1.1497 0.1800004,-1.4468 0.1102499,-0.2972 0.2283745,-0.424 0.4353755,-0.5393 0.4117492,-0.2321 1.3443743,-0.2825 2.766374,-0.2996 z"
       fill="#808080"
       font-family="sans-serif"
       font-weight="400"
       overflow="visible"
       style="line-height:normal;font-variant-ligatures:none;font-variant-position:normal;font-variant-caps:normal;font-variant-numeric:normal;font-variant-alternates:normal;font-feature-settings:normal;text-indent:0;text-align:start;text-decoration-line:none;text-decoration-style:solid;text-decoration-color:#000000;text-transform:none;shape-padding:0;isolation:auto;mix-blend-mode:normal;fill:#ffffff;fill-opacity:1;stroke-width:50;marker:none"
       white-space="normal"
       color="#000000"
       id="path1"
       sodipodi:nodetypes="cccssccccccssccccccccccccccccscccc" /></g></svg>
