<?xml version="1.0" encoding="UTF-8" standalone="no"?>
<!-- Created with Inkscape (http://www.inkscape.org/) -->

<svg
   width="256"
   height="256"
   viewBox="0 0 67.733332 67.733333"
   version="1.1"
   id="svg1"
   inkscape:version="1.4.2 (ebf0e940d0, 2025-05-08)"
   sodipodi:docname="dashButton.svg"
   xmlns:inkscape="http://www.inkscape.org/namespaces/inkscape"
   xmlns:sodipodi="http://sodipodi.sourceforge.net/DTD/sodipodi-0.dtd"
   xmlns="http://www.w3.org/2000/svg"
   xmlns:svg="http://www.w3.org/2000/svg">
  <sodipodi:namedview
     id="namedview1"
     pagecolor="#505050"
     bordercolor="#eeeeee"
     borderopacity="1"
     inkscape:showpageshadow="0"
     inkscape:pageopacity="0"
     inkscape:pagecheckerboard="0"
     inkscape:deskcolor="#505050"
     inkscape:document-units="px"
     inkscape:zoom="2.1380471"
     inkscape:cx="155.28189"
     inkscape:cy="152.47559"
     inkscape:window-width="1334"
     inkscape:window-height="1220"
     inkscape:window-x="0"
     inkscape:window-y="0"
     inkscape:window-maximized="0"
     inkscape:current-layer="layer1" />
  <defs
     id="defs1">
    <inkscape:path-effect
       effect="tiling"
       id="path-effect1"
       is_visible="true"
       lpeversion="1.3.1"
       unit="px"
       seed="1;1"
       lpesatellites=""
       num_rows="3"
       num_cols="3"
       gapx="30"
       gapy="30"
       offset="0"
       offset_type="false"
       scale="0"
       rotate="0"
       mirrorrowsx="false"
       mirrorrowsy="false"
       mirrorcolsx="false"
       mirrorcolsy="false"
       mirrortrans="false"
       shrink_interp="false"
       split_items="false"
       link_styles="false"
       interpolate_scalex="false"
       interpolate_scaley="true"
       interpolate_rotatex="false"
       interpolate_rotatey="true"
       random_scale="false"
       random_rotate="false"
       random_gap_y="false"
       random_gap_x="false"
       transformorigin="" />
  </defs>
  <g
     inkscape:label="Layer 1"
     inkscape:groupmode="layer"
     id="layer1">
    <path
       style="fill:#ffffff;fill-opacity:1;stroke-width:1.5875;stroke-opacity:0.296721"
       id="rect1"
       width="13.229166"
       height="13.229166"
       x="4.6377368"
       y="4.7252402"
       inkscape:path-effect="#path-effect1"
       sodipodi:type="rect"
       d="m 11.25232,4.7252402 c 3.664479,0 6.614583,2.9501041 6.614583,6.6145828 0,3.664479 -2.950104,6.614583 -6.614583,6.614583 -3.6644792,0 -6.6145832,-2.950104 -6.6145832,-6.614583 0,-3.6644787 2.950104,-6.6145828 6.6145832,-6.6145828 z m 21.166666,0 c 3.664479,0 6.614583,2.9501041 6.614583,6.6145828 0,3.664479 -2.950104,6.614583 -6.614583,6.614583 -3.664479,0 -6.614583,-2.950104 -6.614583,-6.614583 0,-3.6644787 2.950104,-6.6145828 6.614583,-6.6145828 z m 21.166666,0 c 3.664479,0 6.614583,2.9501041 6.614583,6.6145828 0,3.664479 -2.950104,6.614583 -6.614583,6.614583 -3.664479,0 -6.614583,-2.950104 -6.614583,-6.614583 0,-3.6644787 2.950104,-6.6145828 6.614583,-6.6145828 z M 11.25232,25.891906 c 3.664479,0 6.614583,2.950104 6.614583,6.614583 0,3.664479 -2.950104,6.614583 -6.614583,6.614583 -3.6644792,0 -6.6145832,-2.950104 -6.6145832,-6.614583 0,-3.664479 2.950104,-6.614583 6.6145832,-6.614583 z m 21.166666,0 c 3.664479,0 6.614583,2.950104 6.614583,6.614583 0,3.664479 -2.950104,6.614583 -6.614583,6.614583 -3.664479,0 -6.614583,-2.950104 -6.614583,-6.614583 0,-3.664479 2.950104,-6.614583 6.614583,-6.614583 z m 21.166666,0 c 3.664479,0 6.614583,2.950104 6.614583,6.614583 0,3.664479 -2.950104,6.614583 -6.614583,6.614583 -3.664479,0 -6.614583,-2.950104 -6.614583,-6.614583 0,-3.664479 2.950104,-6.614583 6.614583,-6.614583 z M 11.25232,47.058572 c 3.664479,0 6.614583,2.950104 6.614583,6.614583 0,3.664479 -2.950104,6.614583 -6.614583,6.614583 -3.6644792,0 -6.6145832,-2.950104 -6.6145832,-6.614583 0,-3.664479 2.950104,-6.614583 6.6145832,-6.614583 z m 21.166666,0 c 3.664479,0 6.614583,2.950104 6.614583,6.614583 0,3.664479 -2.950104,6.614583 -6.614583,6.614583 -3.664479,0 -6.614583,-2.950104 -6.614583,-6.614583 0,-3.664479 2.950104,-6.614583 6.614583,-6.614583 z m 21.166666,0 c 3.664479,0 6.614583,2.950104 6.614583,6.614583 0,3.664479 -2.950104,6.614583 -6.614583,6.614583 -3.664479,0 -6.614583,-2.950104 -6.614583,-6.614583 0,-3.664479 2.950104,-6.614583 6.614583,-6.614583 z"
       transform="matrix(0.67259841,0,0,0.67259841,12.061708,12.002853)"
       ry="6.614583" />
  </g>
</svg>
